<svg aria-hidden="true" style="position: absolute; width: 0; height: 0; overflow: hidden;" version="1.1" xmlns="http://www.w3.org/2000/svg" xmlns:xlink="http://www.w3.org/1999/xlink">
<defs>
<symbol id="Spatu" viewBox="0 0 86 32">
<path fill="#9f9f9f" style="fill: var(--color1, #9f9f9f)" d="M13.391 7.672c-0.151-1.148-0.466-2.146-0.943-2.991-0.476-0.867-1.116-1.528-1.918-1.983-0.78-0.477-1.723-0.715-2.828-0.715-1.062 0-1.95 0.303-2.666 0.91-0.693 0.607-1.040 1.355-1.040 2.243 0 0.737 0.206 1.377 0.618 1.918 0.434 0.542 1.051 1.040 1.853 1.495 0.802 0.433 1.755 0.889 2.861 1.365 1.077 0.453 1.9 0.845 2.705 1.267l-0.202-0.096c0.845 0.411 1.625 0.91 2.341 1.495 0.694 0.565 1.269 1.244 1.705 2.013l0.018 0.035c0.455 0.758 0.683 1.669 0.683 2.731 0 1.257-0.336 2.373-1.008 3.348-0.65 0.975-1.582 1.734-2.796 2.276s-2.644 0.813-4.291 0.813c-0.91 0-1.874-0.141-2.893-0.423-1.061-0.27-1.992-0.683-2.833-1.225l0.037 0.023 0.098 1.398h-2.211l-0.065-7.379h1.853c0.239 1.842 0.921 3.24 2.048 4.194 1.127 0.932 2.482 1.398 4.064 1.398 0.802 0 1.517-0.141 2.146-0.423 0.629-0.303 1.116-0.704 1.463-1.203 0.346-0.479 0.553-1.077 0.553-1.724 0-0.011-0-0.022-0-0.033v0.002c0-0.845-0.26-1.539-0.78-2.081s-1.181-1.008-1.983-1.398c-0.496-0.26-1.319-0.642-2.153-1.003l-0.35-0.135c-1.165-0.489-2.074-0.925-2.96-1.396l0.197 0.096c-0.867-0.477-1.636-1.008-2.308-1.593-0.629-0.584-1.151-1.273-1.541-2.039l-0.019-0.041c-0.368-0.78-0.553-1.702-0.553-2.763 0-0.628 0.119-1.29 0.358-1.983 0.239-0.715 0.629-1.377 1.17-1.983 0.564-0.607 1.311-1.105 2.243-1.495s2.092-0.585 3.478-0.585c0.867 0 1.81 0.13 2.828 0.39 1.040 0.239 1.95 0.64 2.731 1.203l-0.13-1.365h2.243v7.444h-1.82zM18.563 31.565v-1.723c0.628 0 1.073-0.141 1.333-0.423 0.281-0.26 0.455-0.64 0.52-1.138s0.098-1.062 0.098-1.69l0.032-14.401v-1.235c0.021-0.433 0.065-0.878 0.13-1.333-0.369 0.022-0.78 0.043-1.235 0.065-0.434 0.022-0.791 0.043-1.073 0.065v-2.113c0.997 0 1.799-0.043 2.406-0.13 0.628-0.108 1.105-0.239 1.43-0.39 0.347-0.152 0.596-0.293 0.748-0.423h1.398c0.043 0.217 0.076 0.477 0.098 0.78s0.043 0.585 0.065 0.845c0.715-0.628 1.474-1.083 2.276-1.365 0.802-0.303 1.571-0.455 2.308-0.455 1.3 0 2.46 0.336 3.478 1.008 1.018 0.65 1.82 1.593 2.406 2.828 0.585 1.214 0.878 2.655 0.878 4.324 0 1.777-0.358 3.359-1.073 4.746-0.693 1.365-1.647 2.438-2.861 3.218s-2.612 1.17-4.194 1.17c-0.65 0-1.235-0.076-1.755-0.228-0.561-0.14-1.048-0.318-1.509-0.54l0.047 0.020v3.868c0 0.347-0.011 0.758-0.032 1.235 0 0.498-0.032 0.975-0.098 1.43 0.297-0.040 0.679-0.074 1.063-0.096l0.042-0.002h0.975v2.081h-7.899zM27.373 21.748c0.997-0.022 1.799-0.325 2.406-0.91 0.628-0.607 1.083-1.409 1.365-2.406s0.423-2.081 0.423-3.251c0-1.062-0.141-2.070-0.423-3.023-0.26-0.953-0.683-1.723-1.268-2.308s-1.365-0.878-2.341-0.878c-0.633 0.022-1.223 0.188-1.744 0.466l0.022-0.011c-0.518 0.28-0.951 0.651-1.293 1.096l-0.007 0.009v10.403c0.346 0.239 0.769 0.433 1.268 0.585s1.030 0.228 1.593 0.228zM47.71 23.276c-0.048-0.215-0.094-0.492-0.126-0.772l-0.004-0.040c0-0.239-0.011-0.509-0.032-0.813-0.736 0.736-1.528 1.278-2.373 1.625-0.755 0.329-1.634 0.52-2.559 0.52-0.003 0-0.007 0-0.010 0h0.001c-1.474 0-2.611-0.401-3.413-1.203-0.78-0.802-1.17-1.788-1.17-2.958 0-1.040 0.282-1.918 0.845-2.633 0.564-0.736 1.3-1.333 2.211-1.788 0.91-0.477 1.918-0.835 3.023-1.073 0.977-0.243 2.105-0.396 3.265-0.422l0.018-0v-1.788c0-0.628-0.076-1.203-0.228-1.723-0.13-0.542-0.379-0.965-0.748-1.268-0.368-0.325-0.91-0.488-1.625-0.488-0.477 0.022-0.965 0.13-1.463 0.325-0.477 0.173-0.856 0.455-1.138 0.845 0.173 0.195 0.281 0.411 0.325 0.65 0.043 0.217 0.065 0.411 0.065 0.585 0 0.39-0.152 0.802-0.455 1.235-0.304 0.411-0.791 0.607-1.463 0.585-0.585-0.022-1.040-0.228-1.365-0.618-0.303-0.39-0.455-0.856-0.455-1.398 0-0.823 0.293-1.539 0.878-2.146 0.606-0.628 1.419-1.116 2.438-1.463 1.018-0.368 2.156-0.553 3.413-0.553 1.864 0 3.294 0.488 4.291 1.463s1.484 2.536 1.463 4.681v2.081c0 0.607-0.011 1.224-0.032 1.853v2.048c-0.007 0.95-0.054 1.877-0.14 2.793l0.010-0.128c0.351-0.041 0.758-0.065 1.17-0.065h0c0.411-0.022 0.748-0.043 1.008-0.065v2.113h-5.624zM47.352 15.636c-0.65 0.043-1.29 0.152-1.918 0.325-0.628 0.152-1.192 0.368-1.69 0.65s-0.899 0.64-1.203 1.073c-0.282 0.411-0.411 0.889-0.39 1.43 0.022 0.672 0.239 1.17 0.65 1.495 0.411 0.303 0.889 0.455 1.43 0.455 0.628 0 1.192-0.13 1.69-0.39 0.551-0.281 1.023-0.628 1.43-1.040l0-0v-3.998zM61.513 23.796c-0.606 0-1.203-0.076-1.788-0.228-0.563-0.152-1.083-0.433-1.56-0.845-0.455-0.411-0.823-1.018-1.105-1.82-0.281-0.823-0.423-1.907-0.423-3.251l0.065-8.387-2.308 0.033v-2.276c0.65-0.022 1.279-0.239 1.885-0.65 0.607-0.433 1.138-0.997 1.593-1.69 0.425-0.631 0.742-1.373 0.904-2.171l0.007-0.039h1.983l-0.032 4.551h4.584v2.081l-4.584 0.098-0.032 8.355c0 0.65 0.054 1.257 0.163 1.82 0.13 0.542 0.347 0.975 0.65 1.3 0.325 0.325 0.759 0.488 1.3 0.488 0.412 0 0.878-0.13 1.398-0.39 0.542-0.26 1.084-0.78 1.625-1.56l1.333 1.203c-0.541 0.823-1.105 1.463-1.69 1.918-0.563 0.455-1.116 0.791-1.658 1.008-0.52 0.217-0.986 0.347-1.398 0.39s-0.715 0.065-0.91 0.065zM75.078 23.796c-1.257 0-2.286-0.239-3.088-0.715-0.78-0.477-1.354-1.235-1.723-2.276-0.368-1.062-0.553-2.449-0.553-4.161v-4.421c0-0.368 0.011-0.78 0.032-1.235l0.065-1.365c-0.346 0.022-0.737 0.043-1.17 0.065-0.433 0-0.791 0.011-1.073 0.033v-2.080h0.553c1.192 0 2.113-0.098 2.763-0.293 0.672-0.217 1.127-0.433 1.365-0.65h1.495v9.947c0 1.56 0.206 2.72 0.618 3.478 0.434 0.758 1.127 1.138 2.081 1.138 0.65-0.022 1.29-0.217 1.918-0.585 0.65-0.368 1.17-0.802 1.56-1.3v-7.022c0-0.433 0.011-0.878 0.032-1.333 0.022-0.477 0.054-0.943 0.098-1.398-0.346 0.022-0.748 0.043-1.203 0.065-0.433 0-0.791 0.011-1.073 0.033v-2.080h0.845c0.997 0 1.82-0.108 2.471-0.325 0.672-0.217 1.116-0.423 1.333-0.618h1.495v11.67c0 0.303-0.011 0.748-0.032 1.333-0.021 0.607-0.056 1.159-0.106 1.707l0.008-0.114c0.342-0.041 0.739-0.065 1.141-0.065 0.010 0 0.021 0 0.031 0h-0.002c0.434-0.021 0.783-0.045 1.131-0.073l-0.123 0.008v2.113h-5.656l-0.13-0.91c-0.045-0.703-0.069-1.006-0.093-1.309l0.028 0.432c-0.668 0.601-1.413 1.139-2.213 1.593l-0.063 0.033c-0.823 0.455-1.744 0.683-2.763 0.683z"></path>
</symbol>
<symbol id="Pernik" viewBox="0 0 114 32">
<path fill="#9f9f9f" style="fill: var(--color1, #9f9f9f)" d="M3.945 19.715v11.632h-3.918v-29.714h10.959c3.252 0 5.796 0.829 7.633 2.49 1.85 1.659 2.776 3.857 2.776 6.591 0 2.885-0.905 5.109-2.715 6.674-1.796 1.551-4.374 2.327-7.734 2.327h-7zM3.945 16.51h7.041c2.096 0 3.701-0.49 4.816-1.469 1.116-0.993 1.674-2.422 1.674-4.285 0-1.769-0.558-3.184-1.674-4.245s-2.646-1.612-4.592-1.653h-7.265v11.652zM34.679 31.755c-2.993 0-5.428-0.98-7.306-2.939-1.878-1.972-2.817-4.605-2.817-7.898v-0.693c0-2.19 0.415-4.143 1.245-5.857 0.843-1.728 2.013-3.075 3.51-4.041 1.51-0.98 3.143-1.469 4.898-1.469 2.871 0 5.102 0.946 6.694 2.837s2.388 4.599 2.388 8.123v1.571h-14.959c0.054 2.177 0.687 3.939 1.898 5.286 1.224 1.333 2.776 2 4.653 2 1.334 0 2.462-0.272 3.388-0.816 0.925-0.544 1.735-1.265 2.428-2.163l2.307 1.796c-1.851 2.843-4.626 4.265-8.327 4.265zM34.21 11.959c-1.524 0-2.803 0.558-3.837 1.674-1.034 1.102-1.674 2.653-1.919 4.653h11.062v-0.286c-0.109-1.918-0.626-3.401-1.551-4.449-0.925-1.061-2.177-1.592-3.755-1.592zM58.353 12.653c-0.539-0.091-1.161-0.143-1.795-0.143-0.022 0-0.044 0-0.066 0h0.003c-2.476 0-4.157 1.055-5.041 3.163v15.673h-3.775v-22.082h3.673l0.061 2.552c1.238-1.973 2.993-2.96 5.265-2.96 0.735 0 1.293 0.095 1.674 0.286v3.51zM65.414 9.266l0.123 2.776c1.687-2.122 3.891-3.184 6.612-3.184 4.666 0 7.020 2.632 7.061 7.897v14.592h-3.775v-14.612c-0.014-1.592-0.381-2.769-1.102-3.53-0.707-0.762-1.816-1.143-3.326-1.143-1.225 0-2.299 0.327-3.225 0.98s-1.646 1.51-2.163 2.571v15.735h-3.776v-22.082h3.572zM89.006 31.347h-3.775v-22.082h3.775v22.082zM84.924 3.408c0-0.613 0.183-1.13 0.551-1.551 0.381-0.422 0.938-0.633 1.673-0.633s1.292 0.211 1.674 0.633c0.381 0.422 0.571 0.938 0.571 1.551s-0.191 1.122-0.571 1.53c-0.381 0.408-0.939 0.613-1.674 0.613s-1.292-0.204-1.673-0.613c-0.368-0.408-0.551-0.918-0.551-1.53zM101.23 21.123l-2.367 2.469v7.755h-3.775v-31.347h3.775v18.959l2.021-2.428 6.877-7.265h4.592l-8.592 9.224 9.591 12.857h-4.428l-7.694-10.224z"></path>
</symbol>
<symbol id="Kathoc" viewBox="0 0 129 32">
<path fill="#9f9f9f" style="fill: var(--color1, #9f9f9f)" d="M25.336 28.15c0.402 0.616 0.816 1.111 1.244 1.486s0.978 0.696 1.646 0.964v0.803c-1.78-0.077-3.868-0.121-5.966-0.121-0.105 0-0.209 0-0.314 0l0.016-0c-1.767 0-3.467 0.040-5.1 0.12v-0.803c0.749-0.053 1.284-0.134 1.606-0.241 0.348-0.107 0.522-0.295 0.522-0.562 0-0.214-0.147-0.549-0.442-1.004l-5.823-9.437c-0.536-0.856-0.991-1.432-1.366-1.727-0.348-0.295-0.829-0.469-1.446-0.522v10.039c0 1.017 0.067 1.754 0.201 2.209 0.161 0.455 0.442 0.763 0.844 0.924s1.057 0.268 1.968 0.321v0.803c-1.446-0.080-3.467-0.12-6.064-0.12-2.864 0-4.979 0.040-6.344 0.12v-0.803c0.883-0.053 1.526-0.161 1.928-0.321 0.428-0.161 0.709-0.469 0.843-0.924 0.161-0.455 0.241-1.192 0.241-2.209v-19.918c0-1.017-0.080-1.754-0.241-2.209-0.134-0.455-0.415-0.763-0.843-0.924-0.402-0.161-1.044-0.268-1.928-0.321v-0.803c1.365 0.080 3.48 0.12 6.344 0.12 2.598 0 4.618-0.040 6.064-0.12v0.803c-0.91 0.053-1.566 0.161-1.968 0.321s-0.683 0.469-0.843 0.924c-0.134 0.455-0.201 1.192-0.201 2.209v9.035c1.099-0.049 2.106-0.402 2.951-0.977l-0.020 0.013c0.884-0.589 1.888-1.526 3.012-2.811l2.369-2.851c1.232-1.419 1.847-2.664 1.847-3.735 0-0.643-0.267-1.151-0.803-1.526-0.508-0.375-1.231-0.589-2.168-0.643v-0.763c1.954 0.080 3.935 0.12 5.943 0.12 1.553 0 2.811-0.040 3.775-0.12v0.763c-2.142 0.508-4.083 1.794-5.823 3.855l-5.020 5.983 9.357 14.577zM34.084 31.684c-1.713 0-2.999-0.442-3.855-1.325-0.83-0.883-1.245-2.048-1.245-3.494 0-1.205 0.307-2.195 0.924-2.972 0.642-0.803 1.405-1.419 2.289-1.847 0.91-0.429 2.061-0.883 3.453-1.365 1.473-0.508 2.543-0.964 3.213-1.365 0.696-0.429 1.044-1.004 1.044-1.727v-3.132c0-1.124-0.268-1.995-0.803-2.61-0.508-0.643-1.311-0.964-2.409-0.964-1.285 0-2.262 0.321-2.931 0.964 0.75 0.268 1.325 0.669 1.727 1.205 0.429 0.535 0.642 1.165 0.642 1.887 0 0.91-0.307 1.633-0.924 2.168s-1.365 0.803-2.249 0.803c-0.937 0-1.66-0.295-2.168-0.883s-0.763-1.325-0.763-2.209c0-0.75 0.174-1.379 0.522-1.887 0.375-0.535 0.937-1.031 1.687-1.486 0.723-0.429 1.606-0.763 2.65-1.004 1.071-0.241 2.236-0.361 3.494-0.361 1.311 0 2.45 0.134 3.413 0.402s1.767 0.723 2.409 1.365c0.589 0.589 0.977 1.311 1.165 2.168 0.214 0.856 0.321 2.021 0.321 3.494v10.923c0 0.642 0.053 1.098 0.161 1.365 0.134 0.268 0.375 0.402 0.723 0.402 0.402 0 0.883-0.228 1.446-0.683l0.402 0.683c-1.205 0.991-2.677 1.486-4.417 1.486-1.473 0-2.504-0.295-3.092-0.883s-0.897-1.378-0.924-2.369c-1.338 2.168-3.307 3.253-5.903 3.253zM37.176 29.114c1.044 0 1.955-0.549 2.731-1.646v-8.232c-0.321 0.535-1.004 1.124-2.048 1.767-1.044 0.669-1.834 1.338-2.369 2.008s-0.803 1.633-0.803 2.891c0 1.098 0.228 1.914 0.683 2.45 0.455 0.508 1.057 0.763 1.807 0.763zM57.72 10.642h4.739v0.803h-4.739v16.223c0 0.803 0.134 1.378 0.402 1.727 0.295 0.321 0.75 0.482 1.365 0.482 1.151 0 2.061-0.803 2.731-2.409l0.683 0.361c-1.017 2.758-2.851 4.136-5.502 4.136-1.767 0-3.106-0.455-4.016-1.365-0.562-0.562-0.951-1.258-1.165-2.088-0.188-0.856-0.281-2.021-0.281-3.494v-13.573h-3.373v-0.803h3.373v-5.301c2.222 0 4.149-0.429 5.783-1.285v6.586zM71.838 13.814c1.205-2.49 3.386-3.735 6.546-3.735 2.088 0 3.561 0.522 4.417 1.566 0.455 0.508 0.776 1.178 0.964 2.008 0.214 0.803 0.321 1.874 0.321 3.213v10.802c0 1.098 0.188 1.86 0.562 2.289 0.375 0.402 1.044 0.602 2.008 0.602v0.843c-2.784-0.107-4.551-0.161-5.301-0.161-0.91 0-2.65 0.053-5.22 0.161v-0.843c0.803 0 1.365-0.201 1.687-0.602 0.321-0.429 0.482-1.192 0.482-2.289v-12.489c0-1.098-0.188-1.928-0.562-2.49-0.348-0.562-0.991-0.843-1.928-0.843-1.124 0-2.075 0.442-2.851 1.325-0.75 0.856-1.124 1.954-1.124 3.293v11.204c0 1.098 0.161 1.86 0.482 2.289 0.321 0.402 0.883 0.602 1.687 0.602v0.843c-2.57-0.107-4.23-0.161-4.979-0.161-0.91 0-2.758 0.053-5.542 0.161v-0.843c0.937 0 1.593-0.201 1.968-0.602 0.402-0.429 0.602-1.192 0.602-2.289v-22.849c0-1.232-0.201-2.128-0.602-2.691-0.375-0.562-1.031-0.843-1.968-0.843v-0.843c0.856 0.080 1.687 0.12 2.49 0.12 2.329 0 4.284-0.188 5.863-0.562v13.814zM98.478 10.079c3.078 0 5.488 0.883 7.228 2.65 1.74 1.74 2.61 4.511 2.61 8.312s-0.87 6.573-2.61 8.312c-1.741 1.74-4.15 2.61-7.228 2.61-3.052 0-5.461-0.87-7.228-2.61-1.741-1.74-2.61-4.511-2.61-8.312s0.87-6.573 2.61-8.312c1.767-1.767 4.176-2.65 7.228-2.65zM98.478 10.883c-1.151 0-2.075 0.843-2.771 2.53-0.669 1.66-1.004 4.203-1.004 7.63s0.334 5.97 1.004 7.63c0.696 1.66 1.619 2.49 2.771 2.49 1.178 0 2.101-0.816 2.771-2.45 0.669-1.66 1.004-4.216 1.004-7.67s-0.348-6.010-1.044-7.67c-0.669-1.66-1.58-2.49-2.731-2.49zM121.264 10.079c0.991 0 1.928 0.107 2.811 0.321s1.619 0.508 2.209 0.883c0.696 0.429 1.232 0.977 1.606 1.646 0.402 0.643 0.602 1.352 0.602 2.128 0 0.937-0.294 1.713-0.883 2.329-0.589 0.589-1.352 0.883-2.289 0.883s-1.687-0.268-2.249-0.803c-0.562-0.535-0.843-1.258-0.843-2.168 0-0.803 0.254-1.5 0.763-2.088 0.486-0.568 1.129-0.989 1.86-1.198l0.027-0.007c-0.214-0.295-0.549-0.522-1.004-0.683-0.403-0.178-0.874-0.281-1.368-0.281-0.013 0-0.026 0-0.039 0l0.002-0c-1.606 0-2.864 0.883-3.775 2.65-0.883 1.74-1.325 4.029-1.325 6.867 0 2.864 0.509 4.925 1.526 6.184s2.289 1.887 3.815 1.887c0.91 0 1.82-0.241 2.731-0.723 0.937-0.482 1.78-1.325 2.53-2.53l0.683 0.241c-0.535 1.74-1.473 3.24-2.811 4.498-1.338 1.232-3.065 1.847-5.18 1.847-2.758 0-5.006-0.91-6.746-2.731s-2.61-4.524-2.61-8.112c0-2.356 0.429-4.364 1.285-6.024s2.035-2.905 3.534-3.735c1.499-0.856 3.213-1.285 5.14-1.285z"></path>
</symbol>
<symbol id="Bajuu" viewBox="0 0 85 32">
<path fill="#9f9f9f" style="fill: var(--color1, #9f9f9f)" d="M12.614 13.089c1.207 0.257 2.176 0.861 2.909 1.811 0.732 0.93 1.098 1.999 1.098 3.206 0 1.741-0.614 3.126-1.84 4.155-1.207 1.009-2.899 1.514-5.075 1.514h-9.706v-20.836h9.379c2.117 0 3.77 0.485 4.957 1.454 1.207 0.969 1.811 2.285 1.811 3.948 0 1.227-0.326 2.246-0.979 3.057-0.633 0.812-1.484 1.375-2.553 1.692zM5.075 11.368h3.324c0.831 0 1.464-0.178 1.9-0.534 0.455-0.376 0.683-0.92 0.683-1.632s-0.227-1.257-0.683-1.632c-0.435-0.376-1.069-0.564-1.9-0.564h-3.324v4.363zM8.815 19.679c0.851 0 1.504-0.188 1.959-0.564 0.475-0.396 0.712-0.96 0.712-1.692s-0.247-1.306-0.742-1.722c-0.475-0.416-1.138-0.623-1.989-0.623h-3.68v4.601h3.74zM18.556 15.464c0-1.702 0.317-3.195 0.95-4.482 0.653-1.286 1.534-2.276 2.642-2.968s2.345-1.039 3.71-1.039c1.167 0 2.186 0.237 3.057 0.712 0.89 0.475 1.574 1.098 2.048 1.87v-2.345h5.075v16.562h-5.075v-2.345c-0.494 0.772-1.187 1.395-2.078 1.87-0.87 0.475-1.889 0.712-3.057 0.712-1.345 0-2.572-0.346-3.68-1.039-1.108-0.712-1.989-1.711-2.642-2.998-0.633-1.306-0.949-2.81-0.949-4.512zM30.963 15.494c0-1.266-0.356-2.265-1.068-2.998-0.693-0.732-1.543-1.098-2.553-1.098s-1.87 0.366-2.583 1.098c-0.692 0.712-1.039 1.702-1.039 2.968s0.346 2.276 1.039 3.027c0.712 0.732 1.573 1.098 2.583 1.098s1.86-0.366 2.553-1.098c0.712-0.732 1.068-1.731 1.068-2.998zM42.233 5.491c-0.89 0-1.623-0.257-2.196-0.772-0.554-0.534-0.831-1.187-0.831-1.959 0-0.792 0.277-1.445 0.831-1.959 0.574-0.534 1.306-0.801 2.196-0.801 0.87 0 1.583 0.267 2.137 0.801 0.574 0.515 0.861 1.167 0.861 1.959 0 0.772-0.287 1.425-0.861 1.959-0.554 0.515-1.266 0.772-2.137 0.772zM44.786 25.912c0 2.038-0.515 3.502-1.543 4.393-1.029 0.91-2.464 1.365-4.304 1.365h-1.989v-4.304h1.217c0.554 0 0.95-0.109 1.187-0.326s0.356-0.574 0.356-1.069v-18.759h5.075v18.699zM64.789 7.213v16.562h-5.075v-2.256c-0.515 0.732-1.217 1.326-2.107 1.781-0.871 0.435-1.841 0.653-2.909 0.653-1.266 0-2.384-0.277-3.353-0.831-0.97-0.574-1.722-1.395-2.256-2.464s-0.801-2.325-0.801-3.77v-9.676h5.045v8.993c0 1.108 0.287 1.969 0.861 2.582s1.345 0.92 2.315 0.92c0.989 0 1.771-0.307 2.345-0.92s0.861-1.474 0.861-2.582v-8.993h5.075zM84.789 7.213v16.562h-5.075v-2.256c-0.515 0.732-1.217 1.326-2.107 1.781-0.871 0.435-1.841 0.653-2.909 0.653-1.266 0-2.384-0.277-3.353-0.831-0.97-0.574-1.722-1.395-2.256-2.464s-0.802-2.325-0.802-3.77v-9.676h5.046v8.993c0 1.108 0.287 1.969 0.861 2.582s1.345 0.92 2.315 0.92c0.989 0 1.771-0.307 2.345-0.92s0.861-1.474 0.861-2.582v-8.993h5.075z"></path>
</symbol>
</defs>
</svg>
