<svg aria-hidden="true" style="position: absolute; width: 0; height: 0; overflow: hidden;" version="1.1" xmlns="http://www.w3.org/2000/svg" xmlns:xlink="http://www.w3.org/1999/xlink">
<defs>
<symbol id="Paypal" viewBox="0 0 27 32">
<path d="M25.315 9.128c-0.242-0.27-0.505-0.511-0.79-0.724l-0.014-0.010c0.034-0.252 0.053-0.543 0.053-0.839 0-1.696-0.637-3.244-1.684-4.416l0.006 0.006c-1.52-1.715-4.113-2.584-7.707-2.584h-8.722c-1.315 0.003-2.405 0.962-2.613 2.219l-0.002 0.015-3.635 23.026c-0.019 0.107-0.029 0.229-0.029 0.355 0 1.188 0.963 2.152 2.152 2.152 0.002 0 0.003 0 0.005 0h3.739l-0.115 0.73c-0.016 0.097-0.025 0.208-0.025 0.322 0 1.137 0.921 2.058 2.058 2.059h4.539c0.006 0 0.013 0 0.020 0 1.221 0 2.235-0.885 2.436-2.049l0.002-0.015 0.899-5.657 0.014-0.077h0.419c5.659 0 9.194-2.797 10.225-8.088 0.179-0.599 0.282-1.287 0.282-1.999 0-1.674-0.569-3.215-1.524-4.44l0.012 0.016zM7.639 18.392l-1.003 6.366-0.121 0.763h-3.419l3.498-22.152h8.585c2.717 0 4.656 0.568 5.603 1.634 0.626 0.724 1.007 1.675 1.007 2.715 0 0.399-0.056 0.785-0.161 1.151l0.007-0.029-0.026 0.157c-0.017 0.107-0.033 0.212-0.061 0.345-0.287 2.076-1.315 3.871-2.802 5.143l-0.011 0.009c-1.493 1.049-3.348 1.677-5.35 1.677-0.201 0-0.4-0.006-0.597-0.019l0.027 0.001h-2.558c-0.003 0-0.007-0-0.010-0-1.316 0-2.407 0.963-2.606 2.223l-0.002 0.015zM23.79 15.016c-0.772 3.97-3.146 5.819-7.469 5.819h-0.678c-0.006-0-0.013-0-0.020-0-1.222 0-2.237 0.887-2.436 2.052l-0.002 0.015-0.911 5.718-3.406 0.013 0.671-4.258 0.857-5.408h2.413c0.22 0 0.414-0.034 0.629-0.040 0.504-0.017 1.005-0.037 1.477-0.095 0.288-0.036 0.552-0.101 0.829-0.152 0.382-0.071 0.765-0.141 1.124-0.241 0.267-0.074 0.517-0.17 0.771-0.261 0.337-0.118 0.667-0.244 0.979-0.391 0.236-0.111 0.461-0.234 0.682-0.36 0.297-0.168 0.584-0.352 0.86-0.55 0.2-0.144 0.396-0.292 0.583-0.451 0.265-0.228 0.516-0.472 0.754-0.728 0.158-0.169 0.321-0.333 0.468-0.515 0.243-0.311 0.468-0.635 0.674-0.973 0.107-0.171 0.226-0.33 0.325-0.51 0.284-0.52 0.528-1.061 0.731-1.619 0.012-0.034 0.029-0.061 0.041-0.095 0.006-0.017 0.013-0.029 0.019-0.045 0.139 0.482 0.218 1.036 0.218 1.608 0 0.521-0.066 1.027-0.19 1.51l0.009-0.042z"></path>
</symbol>
<symbol id="Transfer" viewBox="0 0 32 32">
<path d="M0.313 14.431v-9.412c0.001-0.866 0.703-1.568 1.569-1.568h24.455l-0.455-0.456c-0.233-0.272-0.375-0.628-0.375-1.018 0-0.867 0.702-1.569 1.569-1.569 0.389 0 0.745 0.142 1.020 0.376l-0.002-0.002 3.137 3.138c0.282 0.283 0.456 0.674 0.456 1.106s-0.174 0.822-0.456 1.106l-3.137 3.137c-0.272 0.233-0.628 0.375-1.017 0.375-0.866 0-1.569-0.702-1.569-1.569 0-0.389 0.142-0.745 0.376-1.020l-0.002 0.002 0.455-0.471h-22.886v7.843c0 0.867-0.702 1.569-1.569 1.569s-1.569-0.702-1.569-1.569v0zM30.118 16c-0.866 0-1.569 0.702-1.569 1.569v0 7.843h-22.886l0.455-0.455c0.233-0.272 0.375-0.628 0.375-1.018 0-0.866-0.702-1.569-1.569-1.569-0.389 0-0.745 0.142-1.020 0.376l0.002-0.002-3.137 3.137c-0.282 0.284-0.456 0.674-0.456 1.106s0.174 0.822 0.456 1.106l-0-0 3.137 3.137c0.273 0.238 0.633 0.383 1.026 0.383 0.866 0 1.568-0.702 1.568-1.568 0-0.393-0.145-0.753-0.384-1.028l0.002 0.002-0.455-0.471h24.455c0.866 0 1.568-0.702 1.569-1.568v-9.412c0-0.866-0.702-1.569-1.569-1.569v0z"></path>
</symbol>
</defs>
</svg>
