<svg aria-hidden="true" style="position: absolute; width: 0; height: 0; overflow: hidden;" version="1.1" xmlns="http://www.w3.org/2000/svg" xmlns:xlink="http://www.w3.org/1999/xlink">
<defs>
<symbol id="icon-StarYellow" viewBox="0 0 32 32">
<path fill="#fbea53" style="fill: var(--color1, #fbea53)" d="M16 1l3.592 11.056h11.626l-9.406 6.832 3.592 11.056-9.404-6.832-9.404 6.832 3.592-11.056-9.404-6.832h11.624l3.592-11.056z"></path>
</symbol>
<symbol id="icon-StarGrey" viewBox="0 0 32 32">
<path fill="#f6f7fb" style="fill: var(--color2, #f6f7fb)" d="M16 1l3.592 11.056h11.626l-9.406 6.832 3.592 11.056-9.404-6.832-9.404 6.832 3.592-11.056-9.404-6.832h11.624l3.592-11.056z"></path>
</symbol>
<symbol id="icon-phone" viewBox="0 0 32 32">
<path fill="#fff" style="fill: var(--color3, #fff)" d="M28.099 17.524c-0.335 0-0.686-0.107-1.021-0.183-0.782-0.174-1.45-0.378-2.094-0.628l0.098 0.033c-0.31-0.116-0.668-0.184-1.042-0.184-1.195 0-2.23 0.688-2.729 1.69l-0.008 0.018-0.335 0.686c-1.546-0.869-2.878-1.881-4.054-3.049l0.001 0.001c-1.167-1.175-2.178-2.507-3-3.961l-0.048-0.093 0.64-0.427c1.019-0.507 1.707-1.542 1.707-2.737 0-0.374-0.067-0.732-0.191-1.063l0.007 0.021c-0.21-0.539-0.414-1.206-0.573-1.89l-0.021-0.106c-0.076-0.335-0.137-0.686-0.183-1.036-0.384-2.169-2.255-3.795-4.505-3.795-0.023 0-0.047 0-0.070 0.001l0.004-0h-4.571c-0.013-0-0.028-0-0.043-0-2.525 0-4.571 2.047-4.571 4.571 0 0.22 0.016 0.437 0.046 0.649l-0.003-0.024c1.718 13.134 12.027 23.412 25.030 25.067l0.143 0.015h0.579c0.001 0 0.001 0 0.002 0 1.85 0 3.444-1.099 4.163-2.681l0.012-0.029c0.264-0.591 0.396-1.231 0.395-1.877v-4.571c-0.040-2.206-1.637-4.027-3.736-4.415l-0.028-0.004zM28.861 26.667c0 0.001 0 0.002 0 0.002 0 0.691-0.461 1.275-1.092 1.461l-0.011 0.003c-0.213 0.066-0.442 0.085-0.664 0.058-11.74-1.548-20.923-10.768-22.402-22.394l-0.013-0.128c-0.006-0.054-0.010-0.116-0.010-0.179 0-0.409 0.148-0.783 0.393-1.073l-0.002 0.002c0.28-0.318 0.688-0.518 1.143-0.518h4.572c0.010-0 0.022-0 0.034-0 0.728 0 1.337 0.511 1.488 1.194l0.002 0.010c0.061 0.416 0.137 0.827 0.229 1.234 0.175 0.803 0.411 1.592 0.701 2.362l-2.133 0.99c-0.529 0.247-0.888 0.774-0.888 1.385 0 0.233 0.052 0.454 0.146 0.651l-0.004-0.009c2.237 4.716 5.95 8.429 10.533 10.609l0.134 0.057c0.171 0.072 0.37 0.114 0.579 0.114s0.408-0.042 0.589-0.118l-0.010 0.004c0.387-0.141 0.694-0.424 0.865-0.783l0.004-0.009 0.945-2.133c0.788 0.282 1.591 0.515 2.408 0.701 0.407 0.091 0.818 0.168 1.234 0.229 0.693 0.153 1.204 0.762 1.204 1.49 0 0.012-0 0.024-0 0.036l0-0.002 0.030 4.754z"></path>
</symbol>
<symbol id="icon-earphones" viewBox="0 0 32 32">
<path d="M24.706 24.464c0.78 0 1.567-0.165 2.211-0.633 0.741-0.539 1.334-1.313 1.499-2.235 0.117-0.655 0.080-1.322 0.080-1.984 0-1.512 0.009-3.028 0-4.543-0.003-0.716-0.208-1.466-0.633-2.048-0.535-0.735-1.301-1.326-2.214-1.494-0.265-0.055-0.569-0.087-0.88-0.087-0.067 0-0.134 0.001-0.2 0.004l0.009-0c-0.539 0.027-1.007 0.159-1.49 0.385-0.845 0.396-1.442 1.161-1.776 2.009-0.269 0.682-0.217 1.442-0.217 2.162v4.759c0 0.609 0.131 1.16 0.389 1.708 0.392 0.845 1.16 1.442 2.008 1.776 0.383 0.153 0.805 0.217 1.215 0.22 0.64 0.007 1.255-0.566 1.224-1.224-0.031-0.667-0.539-1.218-1.224-1.224-0.113 0-0.223-0.009-0.336-0.024 0.107 0.015 0.217 0.031 0.324 0.042-0.221-0.033-0.42-0.091-0.606-0.171l0.016 0.006c0.098 0.040 0.196 0.083 0.294 0.123-0.199-0.086-0.37-0.188-0.526-0.307l0.006 0.004 0.248 0.193c-0.169-0.133-0.318-0.281-0.446-0.445l-0.004-0.006 0.193 0.248c-0.116-0.15-0.217-0.321-0.297-0.504l-0.006-0.016c0.039 0.098 0.082 0.196 0.122 0.294-0.074-0.171-0.132-0.37-0.163-0.577l-0.002-0.014c0.016 0.107 0.031 0.217 0.043 0.325-0.037-0.272-0.025-0.551-0.025-0.827v-4.686c0-0.319-0.018-0.643 0.025-0.959-0.016 0.108-0.031 0.217-0.043 0.325 0.031-0.205 0.086-0.401 0.165-0.59-0.039 0.098-0.082 0.196-0.122 0.294 0.080-0.187 0.18-0.359 0.303-0.521l-0.193 0.248c0.133-0.169 0.281-0.318 0.444-0.446l0.006-0.004c-0.863 0.654-0.944 0.718-1.025 0.781l0.777-0.588c0.162-0.123 0.333-0.224 0.52-0.303-0.098 0.039-0.196 0.082-0.294 0.122 0.189-0.080 0.385-0.135 0.59-0.165-0.107 0.015-0.217 0.031-0.324 0.043 0.128-0.018 0.275-0.028 0.425-0.028s0.298 0.010 0.442 0.029l-0.017-0.002c-0.046-0.009-0.157-0.024-0.268-0.037l-0.057-0.006c0.205 0.031 0.401 0.086 0.59 0.165-0.098-0.039-0.196-0.082-0.294-0.122 0.187 0.080 0.359 0.18 0.52 0.303l-0.248-0.193c0.169 0.132 0.319 0.282 0.451 0.451l-0.193-0.248c0.123 0.162 0.224 0.333 0.304 0.521-0.040-0.098-0.083-0.196-0.123-0.294 0.080 0.189 0.135 0.385 0.165 0.59-0.009-0.046-0.024-0.156-0.037-0.268l-0.006-0.057c0.037 0.273 0.025 0.551 0.025 0.827v4.687c0 0.318 0.018 0.643-0.025 0.958 0.016-0.107 0.031-0.217 0.043-0.325-0.033 0.221-0.091 0.42-0.171 0.607l0.006-0.016c0.039-0.098 0.083-0.196 0.123-0.294-0.086 0.199-0.188 0.37-0.308 0.526l0.004-0.006 0.193-0.248c-0.133 0.169-0.281 0.317-0.445 0.446l-0.006 0.004 0.248-0.193c-0.15 0.115-0.321 0.217-0.504 0.297l-0.016 0.006c0.098-0.040 0.196-0.083 0.294-0.123-0.19 0.080-0.386 0.135-0.591 0.165 0.107-0.015 0.217-0.031 0.325-0.042-0.135 0.016-0.292 0.025-0.451 0.025-0.022 0-0.045-0-0.067-0.001l0.003 0c-0.64 0-1.255 0.564-1.224 1.224 0.031 0.664 0.539 1.224 1.224 1.224zM7.116 24.464c0.78 0 1.567-0.165 2.21-0.633 0.741-0.539 1.335-1.313 1.5-2.235 0.116-0.655 0.080-1.322 0.080-1.984 0-1.512 0.009-3.028 0-4.543-0.003-0.716-0.208-1.466-0.633-2.048-0.536-0.735-1.302-1.326-2.214-1.494-0.265-0.055-0.569-0.087-0.88-0.087-0.067 0-0.134 0.001-0.2 0.004l0.009-0c-0.539 0.027-1.007 0.159-1.491 0.385-0.845 0.396-1.442 1.161-1.776 2.009-0.269 0.682-0.217 1.442-0.217 2.162v4.759c0 0.609 0.131 1.16 0.389 1.708 0.392 0.845 1.16 1.442 2.008 1.776 0.383 0.153 0.805 0.217 1.215 0.22 0.64 0.007 1.256-0.566 1.225-1.224-0.031-0.667-0.539-1.218-1.224-1.224-0.114 0-0.223-0.009-0.337-0.024 0.107 0.015 0.217 0.031 0.325 0.042-0.221-0.033-0.42-0.091-0.607-0.171l0.016 0.006c0.098 0.040 0.196 0.083 0.294 0.123-0.198-0.086-0.369-0.188-0.526-0.307l0.006 0.004 0.248 0.193c-0.169-0.133-0.317-0.281-0.446-0.445l-0.004-0.006 0.193 0.248c-0.115-0.15-0.217-0.321-0.297-0.504l-0.006-0.016c0.040 0.098 0.083 0.196 0.123 0.294-0.074-0.171-0.132-0.37-0.163-0.577l-0.002-0.014c0.015 0.107 0.031 0.217 0.042 0.325-0.037-0.272-0.024-0.551-0.024-0.827v-4.686c0-0.319-0.018-0.643 0.024-0.959-0.009 0.046-0.024 0.157-0.037 0.268l-0.005 0.056c0.034-0.221 0.091-0.42 0.171-0.606l-0.006 0.016c-0.040 0.098-0.083 0.196-0.123 0.294 0.080-0.187 0.181-0.359 0.303-0.521l-0.193 0.248c0.132-0.168 0.281-0.319 0.451-0.451l-0.248 0.193c0.162-0.123 0.333-0.224 0.52-0.303-0.098 0.039-0.196 0.082-0.294 0.122 0.19-0.080 0.386-0.135 0.591-0.165-0.107 0.015-0.217 0.031-0.325 0.043 0.128-0.018 0.275-0.028 0.425-0.028s0.298 0.010 0.442 0.029l-0.017-0.002c-0.046-0.009-0.157-0.024-0.268-0.037l-0.056-0.006c0.206 0.031 0.402 0.086 0.591 0.165-0.098-0.039-0.196-0.082-0.294-0.122 0.187 0.080 0.359 0.18 0.521 0.303l-0.248-0.193c0.169 0.132 0.319 0.282 0.451 0.451l-0.193-0.248c0.123 0.162 0.223 0.333 0.303 0.521-0.039-0.098-0.082-0.196-0.122-0.294 0.079 0.189 0.135 0.385 0.165 0.59-0.008-0.044-0.024-0.155-0.037-0.267l-0.006-0.058c0.037 0.273 0.025 0.551 0.025 0.827v4.687c0 0.318 0.018 0.643-0.025 0.958 0.016-0.107 0.031-0.217 0.043-0.325-0.033 0.221-0.091 0.42-0.171 0.607l0.006-0.016c0.039-0.098 0.082-0.196 0.122-0.294-0.086 0.199-0.188 0.37-0.307 0.526l0.004-0.006 0.193-0.248c-0.133 0.169-0.281 0.317-0.444 0.446l-0.006 0.004 0.248-0.193c-0.162 0.122-0.333 0.223-0.521 0.303 0.098-0.040 0.196-0.083 0.294-0.123-0.189 0.080-0.385 0.135-0.591 0.165 0.108-0.015 0.217-0.031 0.325-0.042-0.135 0.016-0.292 0.025-0.451 0.025-0.022 0-0.044-0-0.067-0.001l0.003 0c-0.64 0-1.255 0.564-1.224 1.224 0.027 0.664 0.539 1.224 1.224 1.224z"></path>
<path d="M5.953 20.763v-6.75c0-0.631 0.015-1.258 0.098-1.883-0.009 0.045-0.024 0.156-0.037 0.268l-0.006 0.057c0.149-1.069 0.423-2.036 0.812-2.942l-0.028 0.074c-0.039 0.098-0.082 0.196-0.122 0.294 0.413-0.96 0.906-1.787 1.491-2.539l-0.019 0.026-0.193 0.248c0.603-0.772 1.276-1.445 2.022-2.029l0.026-0.019-0.248 0.193c0.727-0.564 1.554-1.058 2.439-1.443l0.075-0.029c-0.098 0.039-0.196 0.082-0.294 0.122 0.832-0.36 1.799-0.635 2.808-0.777l0.060-0.007c-0.107 0.016-0.217 0.031-0.325 0.043 0.447-0.061 0.964-0.096 1.489-0.096s1.042 0.035 1.548 0.103l-0.059-0.006c-0.045-0.009-0.156-0.024-0.267-0.037l-0.057-0.006c0.986 0.135 1.95 0.398 2.868 0.784-0.098-0.039-0.196-0.082-0.294-0.122 0.96 0.413 1.787 0.906 2.539 1.491l-0.026-0.019-0.248-0.193c0.772 0.603 1.445 1.276 2.029 2.022l0.019 0.026-0.193-0.248c0.564 0.727 1.058 1.554 1.443 2.439l0.029 0.075c-0.039-0.098-0.082-0.196-0.122-0.294 0.385 0.918 0.649 1.883 0.784 2.868-0.009-0.046-0.024-0.157-0.037-0.268l-0.006-0.056c0.086 0.649 0.098 1.298 0.098 1.95v7.399c0 0.566 0.025 1.142-0.049 1.704 0.016-0.106 0.031-0.217 0.043-0.324-0.070 0.503-0.199 0.958-0.381 1.385l0.013-0.035c0.040-0.098 0.083-0.196 0.123-0.294-0.199 0.465-0.438 0.866-0.722 1.231l0.009-0.012 0.193-0.248c-0.284 0.363-0.601 0.68-0.953 0.956l-0.012 0.009 0.248-0.193c-0.374 0.287-0.784 0.526-1.219 0.713 0.098-0.039 0.196-0.082 0.294-0.122-0.391 0.168-0.846 0.296-1.321 0.364l-0.029 0.003c0.107-0.015 0.217-0.031 0.325-0.042-0.475 0.061-0.952 0.049-1.43 0.049h-2.228c-0.64 0-1.255 0.563-1.225 1.224 0.031 0.664 0.539 1.224 1.224 1.224h2.256c0.285 0 0.569 0.007 0.854-0.003 0.885-0.027 1.708-0.235 2.516-0.581 1.362-0.585 2.544-1.708 3.199-3.037 0.392-0.797 0.615-1.61 0.697-2.495 0.022-0.227 0.022-0.454 0.022-0.683v-4.748c0-1.302 0.003-2.602 0-3.903-0.003-1.417-0.239-2.859-0.729-4.191-0.557-1.496-1.322-2.787-2.275-3.913l0.016 0.019c-1.827-2.179-4.479-3.729-7.28-4.209-0.671-0.124-1.444-0.195-2.233-0.195-0.86 0-1.701 0.084-2.514 0.245l0.082-0.013c-1.411 0.27-2.795 0.818-4.022 1.565-2.491 1.545-4.379 3.859-5.351 6.605l-0.027 0.089c-0.444 1.28-0.658 2.654-0.661 4.007v7.133c0 0.64 0.563 1.255 1.224 1.224s1.224-0.539 1.224-1.224z"></path>
<path d="M17.729 27.844c0 0.086-0.006 0.171-0.018 0.254 0.016-0.107 0.031-0.217 0.043-0.325-0.025 0.15-0.065 0.297-0.119 0.438 0.040-0.098 0.083-0.196 0.123-0.294-0.065 0.15-0.147 0.288-0.245 0.42l0.193-0.248c-0.091 0.116-0.196 0.22-0.312 0.312l0.248-0.193c-0.129 0.098-0.27 0.18-0.42 0.245 0.098-0.040 0.196-0.083 0.294-0.123-0.127 0.054-0.274 0.096-0.428 0.118l-0.010 0.001c0.107-0.015 0.217-0.031 0.325-0.043-0.401 0.052-0.82 0.019-1.224 0.019-0.41 0-0.836 0.033-1.243-0.016 0.107 0.015 0.217 0.031 0.325 0.043-0.172-0.026-0.327-0.070-0.473-0.131l0.013 0.005c0.098 0.040 0.196 0.083 0.294 0.123-0.153-0.069-0.285-0.147-0.406-0.239l0.005 0.004 0.248 0.193c-0.122-0.098-0.23-0.205-0.325-0.323l-0.003-0.004 0.193 0.248c-0.089-0.116-0.167-0.248-0.231-0.389l-0.005-0.013c0.039 0.098 0.083 0.196 0.122 0.294-0.056-0.133-0.1-0.287-0.124-0.448l-0.001-0.011c0.016 0.107 0.031 0.217 0.043 0.325-0.010-0.075-0.016-0.162-0.016-0.249s0.006-0.175 0.017-0.259l-0.001 0.010c-0.016 0.107-0.031 0.217-0.043 0.325 0.025-0.15 0.065-0.297 0.12-0.438-0.039 0.098-0.083 0.196-0.123 0.294 0.065-0.15 0.148-0.288 0.246-0.419l-0.193 0.248c0.091-0.117 0.196-0.221 0.312-0.313l-0.248 0.193c0.129-0.098 0.27-0.18 0.42-0.245-0.098 0.040-0.196 0.083-0.294 0.123 0.14-0.059 0.287-0.098 0.438-0.119-0.107 0.015-0.217 0.031-0.325 0.043 0.401-0.052 0.821-0.019 1.225-0.019 0.41 0 0.836-0.033 1.243 0.016-0.046-0.009-0.157-0.024-0.268-0.037l-0.057-0.006c0.159 0.025 0.31 0.065 0.46 0.126-0.098-0.040-0.196-0.083-0.294-0.123 0.144 0.064 0.276 0.141 0.401 0.236l-0.248-0.193c0.123 0.098 0.23 0.205 0.328 0.327l-0.193-0.248c0.095 0.126 0.172 0.257 0.236 0.402-0.039-0.098-0.082-0.196-0.122-0.294 0.061 0.147 0.101 0.3 0.125 0.459-0.009-0.047-0.024-0.158-0.038-0.269l-0.005-0.055c0.012 0.082 0.016 0.162 0.018 0.245 0.003 0.315 0.135 0.64 0.359 0.866 0.211 0.212 0.56 0.374 0.866 0.359 0.655-0.031 1.234-0.539 1.224-1.224-0.006-0.557-0.156-1.139-0.465-1.61-0.291-0.441-0.686-0.842-1.163-1.078-0.412-0.213-0.899-0.341-1.415-0.349l-0.002-0h-1.96c-0.536 0.006-1.038 0.145-1.477 0.384l0.017-0.008c-0.441 0.233-0.784 0.591-1.071 0.993-0.297 0.416-0.423 0.908-0.487 1.411-0.068 0.557 0.073 1.117 0.312 1.62 0.229 0.49 0.618 0.875 1.059 1.182 0.558 0.385 1.225 0.49 1.886 0.49h1.727c0.537-0.006 1.040-0.145 1.479-0.385l-0.017 0.008c0.97-0.515 1.565-1.576 1.576-2.661 0.007-0.64-0.569-1.255-1.224-1.224-0.67 0.034-1.218 0.542-1.224 1.228z"></path>
</symbol>
<symbol id="icon-Broken" viewBox="0 0 32 32">
<path d="M7.12 1.591c-0.193 0.863-0.383 1.727-0.576 2.59l-0.936 4.231c-0.076 0.349-0.157 0.697-0.232 1.047-0.217 0.989-0.325 2.011-0.266 3.024 0.15 2.559 1.176 4.996 2.92 6.882 0.849 0.913 1.847 1.672 2.958 2.243l0.060 0.028c1.288 0.646 2.654 1.025 4.086 1.154 2.602 0.233 5.324-0.554 7.396-2.143 1.063-0.814 1.969-1.767 2.688-2.9 0.624-0.966 1.109-2.089 1.391-3.291l0.014-0.072c0.272-1.206 0.358-2.464 0.205-3.695-0.087-0.651-0.189-1.201-0.315-1.741l0.024 0.121-0.844-3.811-0.772-3.478c-0.015-0.065-0.027-0.129-0.042-0.193-0.059-0.257-0.239-0.481-0.438-0.637-0.201-0.162-0.459-0.261-0.741-0.263h-13.506c-0.622 0-1.246-0.009-1.87 0h-0.025c-0.64 0-1.255 0.564-1.224 1.224 0.031 0.664 0.539 1.225 1.224 1.225h13.507c0.621 0 1.245 0.012 1.87 0h0.024c-0.395-0.3-0.787-0.6-1.182-0.9 0.212 0.958 0.426 1.916 0.637 2.877 0.321 1.442 0.64 2.887 0.961 4.328 0.114 0.505 0.233 1.010 0.3 1.525-0.009-0.045-0.024-0.156-0.037-0.268l-0.006-0.057c0.053 0.384 0.084 0.828 0.084 1.279 0 0.458-0.031 0.909-0.092 1.35l0.006-0.051c0.015-0.107 0.030-0.217 0.042-0.325-0.128 0.914-0.362 1.739-0.692 2.513l0.024-0.064c0.040-0.098 0.083-0.196 0.123-0.294-0.353 0.824-0.773 1.534-1.272 2.181l0.017-0.023 0.193-0.248c-0.517 0.665-1.095 1.243-1.738 1.744l-0.022 0.016 0.248-0.193c-0.617 0.477-1.319 0.895-2.070 1.221l-0.064 0.025c0.098-0.040 0.196-0.083 0.294-0.123-0.793 0.334-1.626 0.564-2.48 0.679 0.107-0.015 0.217-0.030 0.325-0.042-0.39 0.054-0.84 0.085-1.298 0.085s-0.908-0.031-1.35-0.091l0.051 0.006c0.108 0.016 0.217 0.031 0.325 0.043-0.925-0.129-1.76-0.367-2.543-0.704l0.064 0.024c0.098 0.039 0.196 0.082 0.294 0.122-0.814-0.351-1.517-0.769-2.156-1.263l0.023 0.017 0.248 0.193c-0.664-0.517-1.243-1.096-1.744-1.738l-0.017-0.022 0.193 0.248c-0.481-0.624-0.902-1.334-1.23-2.094l-0.025-0.064c0.040 0.098 0.083 0.196 0.123 0.294-0.306-0.71-0.539-1.535-0.661-2.397l-0.006-0.052c0.015 0.107 0.031 0.217 0.042 0.325-0.055-0.39-0.086-0.841-0.086-1.299 0-0.451 0.030-0.895 0.089-1.33l-0.006 0.051c-0.008 0.044-0.024 0.155-0.037 0.267l-0.006 0.058c0.061-0.457 0.165-0.906 0.263-1.356 0.135-0.612 0.27-1.221 0.407-1.834 0.33-1.494 0.664-2.991 0.995-4.485 0.080-0.352 0.157-0.704 0.236-1.056 0.071-0.321 0.046-0.655-0.123-0.943-0.15-0.254-0.441-0.496-0.731-0.563-0.312-0.071-0.664-0.055-0.943 0.122-0.266 0.174-0.499 0.426-0.569 0.738z"></path>
<path d="M14.775 21.618v8.467c0 0.64 0.564 1.255 1.225 1.224 0.664-0.031 1.224-0.539 1.224-1.224v-8.467c0-0.64-0.564-1.255-1.224-1.224-0.664 0.031-1.224 0.539-1.224 1.224z"></path>
<path d="M10.291 31.309h10.004c0.462 0 0.927 0.009 1.39 0h0.018c0.64 0 1.255-0.563 1.224-1.224-0.031-0.664-0.539-1.224-1.224-1.224h-10.004c-0.462 0-0.927-0.009-1.39 0h-0.018c-0.64 0-1.255 0.563-1.224 1.224 0.031 0.664 0.539 1.224 1.224 1.224zM17.892 12.884l-0.689-1.959c-0.364-1.041-0.728-2.082-1.096-3.122-0.083-0.239-0.168-0.475-0.251-0.713-0.503 0.502-1.004 1.004-1.507 1.506 0.772 0.11 1.54 0.217 2.312 0.327l0.33 0.046c0.217 0.059 0.434 0.059 0.652 0 0.208-0.057 0.389-0.162 0.542-0.315 0.325-0.325 0.404-0.756 0.315-1.191-0.138-0.658-0.272-1.319-0.41-1.977-0.221-1.056-0.438-2.112-0.658-3.168-0.049-0.242-0.101-0.484-0.15-0.723-0.061-0.291-0.312-0.585-0.563-0.731-0.264-0.153-0.649-0.217-0.943-0.122-0.297 0.095-0.581 0.278-0.731 0.563-0.159 0.303-0.193 0.606-0.123 0.943 0.137 0.658 0.272 1.319 0.41 1.977 0.221 1.056 0.438 2.112 0.658 3.169 0.049 0.242 0.101 0.483 0.15 0.722l1.506-1.507c-0.771-0.11-1.54-0.217-2.312-0.327l-0.33-0.046c-0.098-0.028-0.21-0.044-0.326-0.044s-0.228 0.016-0.335 0.046l0.009-0.002c-0.213 0.059-0.396 0.168-0.542 0.315l-0 0c-0.294 0.294-0.456 0.787-0.315 1.191l0.688 1.959c0.364 1.041 0.729 2.081 1.096 3.122 0.083 0.239 0.168 0.475 0.251 0.713 0.107 0.303 0.278 0.566 0.563 0.731 0.263 0.153 0.649 0.218 0.943 0.123 0.297-0.095 0.581-0.278 0.731-0.563 0.147-0.279 0.233-0.633 0.123-0.943z"></path>
</symbol>
<symbol id="icon-Card" viewBox="0 0 32 32">
<path d="M28.434 7.184v15.536c0 0.692 0.003 1.384 0 2.075 0 0.065-0.003 0.125-0.012 0.189 0.015-0.106 0.031-0.217 0.043-0.324-0.017 0.119-0.046 0.226-0.086 0.328l0.003-0.010c0.040-0.098 0.083-0.196 0.123-0.294-0.051 0.119-0.111 0.222-0.183 0.316l0.003-0.003 0.193-0.248c-0.068 0.084-0.142 0.159-0.224 0.224l-0.003 0.002 0.248-0.193c-0.098 0.074-0.202 0.135-0.312 0.181 0.098-0.039 0.196-0.083 0.294-0.123-0.105 0.040-0.208 0.068-0.318 0.083 0.106-0.015 0.217-0.031 0.324-0.043-0.26 0.031-0.532 0.013-0.795 0.013h-24.055c-0.067 0-0.135-0.004-0.202-0.013 0.108 0.016 0.218 0.031 0.325 0.043-0.119-0.017-0.227-0.046-0.328-0.086l0.010 0.003c0.098 0.040 0.196 0.083 0.294 0.123-0.119-0.051-0.222-0.111-0.316-0.183l0.003 0.003 0.248 0.193c-0.084-0.068-0.159-0.142-0.224-0.224l-0.002-0.003 0.193 0.248c-0.069-0.090-0.129-0.193-0.177-0.303l-0.004-0.009c0.039 0.098 0.082 0.196 0.122 0.294-0.037-0.092-0.065-0.199-0.081-0.31l-0.001-0.008c0.015 0.107 0.030 0.217 0.042 0.325-0.022-0.202-0.012-0.407-0.012-0.609v-15.073c0-0.698-0.003-1.396 0-2.097 0-0.065 0.003-0.125 0.013-0.189-0.009 0.045-0.024 0.156-0.037 0.267l-0.006 0.057c0.015-0.11 0.042-0.214 0.082-0.318-0.039 0.098-0.082 0.196-0.122 0.294 0.049-0.114 0.107-0.217 0.18-0.313l-0.193 0.248c0.067-0.082 0.141-0.159 0.227-0.227l-0.248 0.193c0.098-0.074 0.202-0.135 0.312-0.181-0.098 0.039-0.196 0.083-0.294 0.123 0.092-0.037 0.199-0.066 0.311-0.082l0.008-0.001c-0.107 0.015-0.217 0.031-0.325 0.043 0.26-0.031 0.532-0.013 0.796-0.013h24.055c0.067 0 0.135 0.003 0.202 0.013-0.046-0.009-0.157-0.024-0.269-0.037l-0.057-0.006c0.111 0.015 0.215 0.043 0.319 0.083-0.098-0.040-0.196-0.083-0.294-0.123 0.113 0.049 0.217 0.107 0.312 0.181l-0.248-0.193c0.083 0.067 0.159 0.141 0.227 0.227 0.53 0.707 0.467 0.626 0.404 0.545l-0.597-0.793c0.073 0.098 0.135 0.202 0.18 0.313-0.039-0.098-0.082-0.196-0.122-0.294 0.040 0.104 0.067 0.208 0.083 0.318-0.009-0.045-0.024-0.156-0.037-0.268l-0.006-0.057c0.009 0.056 0.012 0.11 0.012 0.168 0.007 0.319 0.131 0.64 0.358 0.867 0.212 0.211 0.56 0.373 0.867 0.358 0.655-0.031 1.237-0.539 1.224-1.224-0.008-0.683-0.278-1.302-0.714-1.761l0.001 0.001c-0.451-0.478-1.066-0.713-1.708-0.765-0.076-0.007-0.157-0.003-0.236-0.003h-24.511c-0.432 0-0.827 0.098-1.219 0.279-0.469 0.214-0.903 0.655-1.115 1.123-0.169 0.374-0.266 0.72-0.269 1.136v17.445c0 0.089-0.003 0.178 0.003 0.266 0.043 0.646 0.282 1.258 0.754 1.714 0.454 0.439 1.069 0.713 1.748 0.725l0.002 0c0.187 0.004 0.371 0 0.558 0h24.116c0.453 0 0.882-0.104 1.283-0.311 0.818-0.423 1.301-1.329 1.31-2.229 0.003-0.309 0-0.615 0-0.924v-16.696c0-0.64-0.563-1.255-1.224-1.224-0.664 0.031-1.228 0.539-1.228 1.224z"></path>
<path d="M28.434 10.514v4.197l1.225-1.224h-26.214c-0.355 0-0.71-0.007-1.062 0h-0.046l1.224 1.224v-4.197l-1.224 1.224h26.213c0.355 0 0.71 0.003 1.062 0h0.046c0.64 0 1.255-0.564 1.225-1.224-0.031-0.664-0.539-1.224-1.224-1.224h-26.214c-0.355 0-0.71-0.003-1.062 0h-0.046c-0.662 0-1.224 0.56-1.224 1.224v4.197c0 0.662 0.56 1.224 1.224 1.224h26.213c0.355 0 0.71 0.003 1.062 0h0.046c0.662 0 1.225-0.56 1.225-1.224v-4.197c0-0.64-0.564-1.255-1.224-1.224-0.662 0.027-1.224 0.536-1.224 1.224zM6.774 21.528h7.564c0.64 0 1.255-0.563 1.224-1.224-0.031-0.664-0.539-1.224-1.224-1.224h-7.566c-0.639 0-1.255 0.564-1.224 1.224 0.027 0.665 0.535 1.224 1.224 1.224z"></path>
</symbol>
<symbol id="icon-Truck" viewBox="0 0 32 32">
<path d="M18.143 8.341v12.129c0 0.557-0.012 1.117 0 1.674v0.024l1.224-1.224h-9.147l1.224 1.224c-0.007-0.719-0.211-1.479-0.633-2.066-0.261-0.365-0.566-0.677-0.914-0.935l-0.011-0.008c-0.291-0.22-0.618-0.37-0.961-0.496-1.356-0.502-3.043-0.040-3.971 1.065-0.581 0.695-0.915 1.528-0.924 2.442l1.224-1.224h-1.127c-0.383 0-0.78 0.033-1.163-0.009 0.107 0.015 0.217 0.031 0.324 0.042-0.090-0.014-0.17-0.035-0.247-0.064l0.009 0.003c0.098 0.039 0.196 0.082 0.294 0.122-0.094-0.039-0.174-0.086-0.247-0.142l0.003 0.002 0.248 0.193c-0.063-0.051-0.118-0.106-0.167-0.166l0.191 0.246c-0.058-0.076-0.104-0.157-0.141-0.245 0.040 0.098 0.083 0.196 0.123 0.294-0.027-0.069-0.049-0.15-0.061-0.233l-0.001-0.006c0.016 0.107 0.031 0.217 0.043 0.325-0.016-0.147-0.009-0.297-0.009-0.444v-10.971c0-0.511-0.007-1.022 0-1.53 0-0.049 0.003-0.095 0.009-0.144-0.009 0.045-0.024 0.156-0.037 0.267l-0.006 0.057c0.014-0.090 0.035-0.17 0.064-0.247l-0.003 0.009c-0.040 0.098-0.083 0.196-0.123 0.294 0.037-0.089 0.083-0.168 0.141-0.246l-0.193 0.248c0.052-0.064 0.107-0.12 0.168-0.168l-0.248 0.193c0.076-0.059 0.156-0.104 0.245-0.141-0.098 0.040-0.196 0.083-0.294 0.123 0.080-0.031 0.156-0.049 0.238-0.061-0.045 0.008-0.155 0.023-0.267 0.037l-0.057 0.006c0.168-0.018 0.343-0.009 0.514-0.009h13.050c0.609 0 1.219-0.009 1.827 0 0.049 0 0.098 0.003 0.147 0.009-0.046-0.009-0.157-0.024-0.269-0.037l-0.056-0.005c0.083 0.012 0.163 0.033 0.239 0.061-0.098-0.040-0.196-0.083-0.294-0.123 0.089 0.037 0.169 0.083 0.245 0.141l-0.248-0.193c0.065 0.052 0.119 0.107 0.169 0.168l-0.193-0.248c0.058 0.077 0.105 0.157 0.141 0.246-0.040-0.098-0.083-0.196-0.123-0.294 0.031 0.079 0.049 0.156 0.061 0.238-0.009-0.047-0.024-0.158-0.038-0.269l-0.006-0.055c0.007 0.037 0.009 0.080 0.009 0.123 0.007 0.318 0.132 0.64 0.359 0.866 0.211 0.212 0.56 0.374 0.866 0.359 0.652-0.031 1.24-0.539 1.224-1.224-0.012-0.582-0.235-1.11-0.596-1.511l0.002 0.002c-0.284-0.325-0.74-0.588-1.169-0.655-0.164-0.031-0.354-0.050-0.549-0.052l-0.002-0h-13.369c-0.603 0-1.209-0.012-1.812 0-1.001 0.013-1.843 0.676-2.126 1.585l-0.004 0.016c-0.071 0.227-0.086 0.469-0.086 0.707v12.741c0.007 0.386 0.101 0.72 0.27 1.066 0.189 0.385 0.569 0.747 0.961 0.918 0.336 0.15 0.652 0.236 1.025 0.239h2.121c0.667 0 1.219-0.56 1.225-1.224 0-0.114 0.009-0.227 0.024-0.34-0.009 0.045-0.024 0.156-0.037 0.267l-0.006 0.057c0.031-0.22 0.092-0.431 0.175-0.633-0.040 0.098-0.083 0.196-0.123 0.294 0.086-0.199 0.196-0.383 0.328-0.554l-0.193 0.248c0.126-0.159 0.266-0.3 0.426-0.426l-0.248 0.193c0.172-0.132 0.355-0.242 0.554-0.328-0.098 0.041-0.196 0.083-0.294 0.123 0.184-0.079 0.397-0.14 0.62-0.173l0.014-0.002c-0.107 0.015-0.217 0.031-0.325 0.043 0.102-0.015 0.22-0.023 0.34-0.023s0.238 0.008 0.353 0.024l-0.013-0.002c-0.045-0.009-0.156-0.024-0.267-0.037l-0.057-0.006c0.22 0.031 0.431 0.091 0.633 0.174-0.098-0.039-0.196-0.083-0.294-0.123 0.199 0.086 0.383 0.196 0.554 0.328l-0.248-0.193c0.159 0.126 0.299 0.266 0.421 0.42l0.004 0.005-0.193-0.248c0.132 0.172 0.242 0.355 0.328 0.555-0.040-0.098-0.083-0.196-0.123-0.294 0.086 0.204 0.144 0.416 0.174 0.633-0.009-0.046-0.024-0.158-0.037-0.269l-0.005-0.056c0.015 0.114 0.022 0.227 0.024 0.34 0.007 0.662 0.557 1.225 1.224 1.225h9.147c0.661 0 1.224-0.56 1.224-1.224v-12.129c0-0.557 0.010-1.117 0-1.674v-0.025c0-0.64-0.563-1.255-1.224-1.224-0.661 0.028-1.221 0.535-1.221 1.221z"></path>
<path d="M28.671 17.16v3.57c0 0.189 0.012 0.385-0.009 0.579 0.015-0.107 0.030-0.217 0.042-0.325-0.014 0.090-0.035 0.171-0.064 0.248l0.003-0.009c0.040-0.098 0.083-0.196 0.123-0.294-0.039 0.093-0.086 0.174-0.143 0.247l0.002-0.003 0.193-0.248c-0.052 0.064-0.108 0.119-0.169 0.169l0.248-0.193c-0.077 0.058-0.157 0.104-0.246 0.14 0.098-0.039 0.196-0.082 0.294-0.122-0.069 0.027-0.149 0.048-0.233 0.060l-0.006 0.001c0.107-0.015 0.217-0.030 0.325-0.042-0.315 0.033-0.643 0.009-0.961 0.009h-0.925l1.224 1.224c-0.007-0.72-0.211-1.479-0.633-2.066-0.261-0.365-0.566-0.677-0.914-0.935l-0.011-0.008c-0.291-0.22-0.618-0.37-0.961-0.496-1.358-0.502-3.043-0.039-3.971 1.066-0.581 0.695-0.914 1.527-0.924 2.442l1.224-1.224h-2.816l1.224 1.224v-9.524c0-0.441 0.009-0.882 0-1.322v-0.018l-1.224 1.225h4.803c0.261 0 0.533-0.019 0.79 0.012-0.046-0.009-0.157-0.024-0.269-0.037l-0.056-0.005c0.11 0.018 0.211 0.046 0.315 0.085-0.098-0.039-0.196-0.082-0.294-0.122 0.116 0.049 0.223 0.111 0.321 0.187l-0.248-0.193c0.202 0.162 0.361 0.385 0.526 0.581 0.297 0.355 0.594 0.711 0.895 1.066 0.694 0.829 1.389 1.662 2.087 2.492 0.169 0.202 0.34 0.401 0.505 0.603l-0.193-0.248c0.071 0.095 0.125 0.189 0.174 0.297-0.039-0.098-0.082-0.196-0.122-0.294 0.042 0.107 0.073 0.214 0.091 0.33-0.009-0.046-0.024-0.157-0.037-0.269l-0.005-0.056c0.015 0.065 0.022 0.129 0.022 0.196 0.006 0.319 0.131 0.64 0.358 0.867 0.211 0.211 0.56 0.374 0.867 0.358 0.652-0.030 1.236-0.539 1.224-1.224-0.009-0.454-0.126-0.878-0.326-1.251l0.007 0.015c-0.095-0.184-0.233-0.346-0.364-0.505-0.055-0.064-0.107-0.129-0.162-0.193l-2.973-3.551c-0.199-0.239-0.398-0.478-0.597-0.714-0.487-0.579-1.23-0.878-1.977-0.878-0.885-0.003-1.772 0-2.657 0s-1.772-0.009-2.657 0h-0.046c-0.662 0-1.225 0.56-1.225 1.224v9.524c0 0.441-0.007 0.882 0 1.322v0.018c0 0.661 0.56 1.224 1.224 1.224h2.817c0.667 0 1.218-0.56 1.224-1.224 0-0.114 0.009-0.227 0.024-0.34-0.015 0.107-0.031 0.217-0.042 0.324 0.035-0.237 0.096-0.45 0.181-0.651l-0.006 0.017c-0.040 0.098-0.083 0.196-0.123 0.294 0.086-0.199 0.196-0.383 0.328-0.554l-0.193 0.248c0.125-0.159 0.266-0.3 0.425-0.426l-0.248 0.193c0.172-0.132 0.355-0.242 0.554-0.328-0.098 0.040-0.196 0.083-0.294 0.123 0.205-0.086 0.416-0.144 0.633-0.174-0.107 0.015-0.217 0.031-0.325 0.042 0.102-0.015 0.22-0.023 0.34-0.023s0.238 0.008 0.353 0.024l-0.013-0.002c-0.044-0.008-0.155-0.023-0.266-0.037l-0.057-0.006c0.221 0.031 0.432 0.091 0.633 0.174-0.098-0.039-0.196-0.083-0.294-0.123 0.199 0.086 0.383 0.196 0.554 0.328l-0.248-0.193c0.159 0.125 0.3 0.266 0.426 0.425l-0.193-0.248c0.132 0.172 0.242 0.355 0.328 0.555-0.040-0.098-0.083-0.196-0.123-0.294 0.086 0.204 0.144 0.416 0.175 0.633-0.009-0.046-0.024-0.157-0.037-0.269l-0.006-0.057c0.015 0.114 0.022 0.227 0.025 0.34 0.006 0.662 0.557 1.225 1.224 1.225h1.454c0.321 0 0.649 0.007 0.958-0.101 0.374-0.125 0.738-0.333 0.992-0.64 0.129-0.156 0.251-0.309 0.33-0.492 0.135-0.303 0.196-0.526 0.23-0.857 0.033-0.343 0.009-0.701 0.009-1.044v-3.101c0-0.64-0.564-1.255-1.224-1.224-0.658 0.031-1.221 0.539-1.221 1.224zM8.993 22.169c0 0.113-0.009 0.226-0.024 0.34 0.015-0.108 0.031-0.217 0.042-0.325-0.030 0.22-0.091 0.431-0.174 0.633 0.040-0.098 0.083-0.196 0.123-0.294-0.086 0.199-0.196 0.383-0.328 0.554l0.193-0.248c-0.125 0.159-0.266 0.3-0.425 0.426l0.248-0.193c-0.172 0.131-0.355 0.242-0.554 0.327 0.098-0.039 0.196-0.082 0.294-0.122-0.205 0.086-0.416 0.144-0.633 0.174 0.107-0.015 0.217-0.031 0.325-0.043-0.102 0.015-0.22 0.023-0.34 0.023s-0.238-0.008-0.353-0.024l0.013 0.002c0.106 0.016 0.217 0.031 0.324 0.043-0.237-0.035-0.45-0.096-0.651-0.181l0.017 0.006c0.098 0.039 0.196 0.083 0.294 0.122-0.212-0.093-0.394-0.202-0.56-0.332l0.006 0.004 0.248 0.193c-0.16-0.126-0.299-0.266-0.422-0.42l-0.004-0.005 0.193 0.248c-0.125-0.161-0.235-0.343-0.321-0.539l-0.007-0.017c0.040 0.098 0.083 0.196 0.123 0.294-0.080-0.184-0.141-0.397-0.173-0.62l-0.002-0.014c0.016 0.108 0.031 0.217 0.043 0.325-0.015-0.102-0.023-0.22-0.023-0.34s0.008-0.238 0.024-0.353l-0.002 0.013c-0.009 0.045-0.024 0.156-0.037 0.268l-0.006 0.057c0.035-0.237 0.096-0.45 0.181-0.651l-0.006 0.017c-0.040 0.098-0.083 0.196-0.123 0.294 0.086-0.199 0.196-0.383 0.328-0.555l-0.193 0.248c0.126-0.159 0.266-0.3 0.426-0.424l-0.248 0.192c0.172-0.131 0.355-0.242 0.554-0.327-0.098 0.039-0.196 0.082-0.294 0.122 0.184-0.079 0.397-0.14 0.62-0.173l0.014-0.002c-0.107 0.016-0.217 0.031-0.325 0.043 0.102-0.015 0.22-0.023 0.34-0.023s0.238 0.008 0.353 0.024l-0.013-0.002c-0.044-0.008-0.155-0.024-0.266-0.037l-0.058-0.006c0.22 0.031 0.431 0.091 0.633 0.174-0.098-0.039-0.196-0.082-0.294-0.122 0.199 0.086 0.383 0.196 0.554 0.327l-0.248-0.193c0.159 0.125 0.3 0.266 0.425 0.426l-0.193-0.248c0.132 0.171 0.242 0.355 0.328 0.554-0.040-0.098-0.083-0.196-0.123-0.294 0.086 0.205 0.144 0.417 0.174 0.633-0.008-0.045-0.023-0.155-0.037-0.267l-0.006-0.057c0.018 0.113 0.024 0.227 0.024 0.34 0.003 0.315 0.135 0.643 0.359 0.867 0.211 0.211 0.56 0.374 0.866 0.358 0.658-0.031 1.231-0.539 1.225-1.224-0.007-0.725-0.214-1.494-0.646-2.085-0.26-0.357-0.561-0.663-0.901-0.919l-0.011-0.008c-0.291-0.224-0.618-0.371-0.961-0.496-0.346-0.129-0.731-0.183-1.102-0.196-0.031-0.001-0.068-0.002-0.106-0.002-0.354 0-0.696 0.051-1.019 0.146l0.026-0.006c-0.677 0.193-1.335 0.594-1.785 1.139-0.274 0.327-0.502 0.706-0.667 1.117l-0.010 0.028c-0.137 0.343-0.193 0.701-0.226 1.068-0.061 0.72 0.144 1.497 0.514 2.112 0.361 0.601 0.912 1.133 1.552 1.424 0.447 0.202 0.844 0.312 1.332 0.364 0.364 0.039 0.728 0 1.087-0.071 0.75-0.141 1.503-0.591 1.992-1.175 0.581-0.695 0.916-1.527 0.925-2.442 0.007-0.64-0.566-1.255-1.225-1.225-0.662 0.034-1.212 0.542-1.219 1.228z"></path>
<path d="M25.921 22.168c0 0.114-0.009 0.227-0.024 0.34 0.015-0.107 0.031-0.217 0.042-0.324-0.031 0.22-0.091 0.431-0.174 0.633 0.040-0.098 0.083-0.196 0.123-0.294-0.086 0.199-0.196 0.383-0.328 0.554l0.193-0.248c-0.125 0.159-0.266 0.3-0.425 0.426l0.248-0.193c-0.172 0.132-0.355 0.242-0.554 0.328 0.098-0.040 0.196-0.083 0.294-0.123-0.205 0.086-0.416 0.144-0.633 0.174 0.107-0.015 0.217-0.031 0.325-0.042-0.102 0.015-0.22 0.023-0.34 0.023s-0.238-0.008-0.353-0.024l0.013 0.002c0.107 0.015 0.217 0.030 0.325 0.042-0.237-0.035-0.45-0.096-0.651-0.181l0.017 0.006c0.098 0.040 0.196 0.083 0.294 0.123-0.212-0.093-0.394-0.203-0.56-0.332l0.006 0.004 0.248 0.193c-0.16-0.126-0.299-0.266-0.422-0.42l-0.004-0.005 0.193 0.248c-0.125-0.161-0.235-0.343-0.321-0.539l-0.007-0.017c0.039 0.098 0.083 0.197 0.123 0.295-0.080-0.184-0.141-0.397-0.173-0.62l-0.002-0.014c0.016 0.107 0.031 0.217 0.043 0.324-0.015-0.102-0.023-0.22-0.023-0.34s0.008-0.238 0.024-0.353l-0.002 0.013c-0.016 0.107-0.031 0.217-0.043 0.325 0.035-0.237 0.096-0.45 0.181-0.651l-0.006 0.017c-0.039 0.098-0.082 0.196-0.122 0.294 0.086-0.199 0.196-0.383 0.328-0.554l-0.193 0.248c0.126-0.16 0.266-0.299 0.421-0.422l0.005-0.004-0.248 0.193c0.172-0.132 0.355-0.242 0.554-0.328-0.098 0.039-0.196 0.083-0.294 0.122 0.205-0.085 0.416-0.144 0.633-0.174-0.107 0.016-0.217 0.031-0.325 0.043 0.102-0.015 0.22-0.023 0.34-0.023s0.238 0.008 0.353 0.024l-0.013-0.002c-0.044-0.008-0.155-0.024-0.266-0.037l-0.058-0.006c0.22 0.031 0.431 0.091 0.633 0.174-0.098-0.039-0.196-0.082-0.294-0.122 0.199 0.086 0.383 0.196 0.554 0.328l-0.248-0.193c0.159 0.125 0.3 0.266 0.425 0.426l-0.193-0.248c0.132 0.172 0.242 0.355 0.328 0.554-0.040-0.098-0.083-0.196-0.123-0.294 0.086 0.205 0.144 0.416 0.174 0.633-0.009-0.046-0.024-0.157-0.037-0.269l-0.005-0.056c0.015 0.113 0.024 0.227 0.024 0.34 0.003 0.315 0.135 0.643 0.359 0.867 0.211 0.211 0.56 0.374 0.866 0.358 0.658-0.031 1.231-0.539 1.224-1.224-0.007-0.725-0.214-1.494-0.646-2.085-0.26-0.357-0.561-0.663-0.901-0.919l-0.011-0.008c-0.291-0.223-0.618-0.37-0.961-0.496-0.346-0.129-0.731-0.183-1.102-0.196-0.031-0.001-0.068-0.002-0.106-0.002-0.354 0-0.696 0.051-1.019 0.146l0.026-0.006c-0.677 0.193-1.335 0.594-1.785 1.139-0.274 0.327-0.502 0.706-0.667 1.117l-0.010 0.028c-0.137 0.343-0.193 0.701-0.227 1.068-0.061 0.72 0.144 1.497 0.515 2.112 0.361 0.601 0.912 1.133 1.552 1.424 0.388 0.185 0.839 0.314 1.314 0.363l0.017 0.001c0.364 0.039 0.728 0 1.087-0.071 0.75-0.14 1.503-0.591 1.992-1.175 0.581-0.695 0.916-1.527 0.925-2.442 0.007-0.64-0.566-1.255-1.224-1.225-0.662 0.034-1.212 0.542-1.219 1.228z"></path>
</symbol>
<symbol id="icon-accesories" viewBox="0 0 32 32">
<path d="M16 2.934c-8.898 0-15.866 4.106-15.866 9.333v7.467c0 4.262 4.84 7.944 11.795 9.014 0.392 0.207 0.828 0.317 1.271 0.32h5.6c0.466-0.003 0.903-0.122 1.286-0.327l-0.015 0.007c6.955-1.070 11.795-4.752 11.795-9.014v-7.467c0-5.226-6.968-9.333-15.866-9.333zM2 19.734v-3.010c2.331 2.267 5.351 3.836 8.717 4.362l0.091 0.012c-0.254 0.409-0.406 0.904-0.408 1.435v3.733c0 0.098 0.018 0.187 0.028 0.284-4.982-1.187-8.428-3.89-8.428-6.817zM19.733 26.266c-0.021 0.507-0.426 0.913-0.931 0.934l-0.002 0h-1.867v-1.866h0.934c0.516 0 0.934-0.418 0.934-0.934s-0.418-0.934-0.934-0.934h-0.933v-1.866h1.866c0.515 0 0.933 0.418 0.933 0.934v0 3.733zM12.266 26.266v-3.733c0-0.516 0.418-0.934 0.934-0.934v0h1.866v1.866c-0.516 0-0.934 0.418-0.934 0.934s0.418 0.934 0.934 0.934v0 1.866h-1.866c-0.508-0.018-0.915-0.426-0.934-0.932l-0-0.002zM21.384 18.082c0.186-2.261-2.184-3.634-4.45-3.896v-1.866c4.389 0.382 7.352 3.352 4.45 5.762zM12.267 17.866c-0.001-0.881 1.595-1.866 3.733-1.866 2.030 0 3.546 0.986 3.546 1.866s-1.516 1.867-3.546 1.867c-1.52 0-3.734-0.708-3.734-1.867zM15.067 14.194c-2.678 0.29-4.667 1.791-4.667 3.67-2.614-2.52 0.648-5.194 4.666-5.541v1.872zM24.042 17.554c0.223-0.488 0.345-1.017 0.358-1.554 0-3.142-3.69-5.6-8.4-5.6s-8.401 2.458-8.401 5.6c0.012 0.539 0.134 1.070 0.358 1.56-1.234-0.7-2.086-1.951-2.224-3.409l-0.001-0.018c0-3.035 4.702-5.6 10.267-5.6s10.266 2.565 10.266 5.6c-0.139 1.476-0.991 2.726-2.203 3.416l-0.022 0.011v-0.006zM30.001 19.734c0 2.926-3.446 5.63-8.428 6.817 0.010-0.095 0.028-0.186 0.028-0.284v-3.733c-0.003-0.532-0.154-1.027-0.416-1.448l0.007 0.012c3.32-0.504 6.4-2.032 8.808-4.374v3.010zM27.587 16.394c0.357-0.7 0.544-1.474 0.547-2.26 0-4.187-5.33-7.467-12.134-7.467s-12.134 3.28-12.134 7.467c0.003 0.786 0.19 1.56 0.547 2.26-1.365-0.914-2.285-2.401-2.413-4.109l-0.001-0.018c0-4.046 6.412-7.466 14-7.466s14 3.42 14 7.466c-0.129 1.726-1.049 3.214-2.394 4.116l-0.020 0.012z"></path>
</symbol>
<symbol id="icon-dress" viewBox="0 0 32 32">
<path d="M4.8 24.947c0.058 2.076 0.646 4.104 1.708 5.889 0.314 0.616 0.943 1.030 1.669 1.030h8.026c0 0 0.001 0 0.001 0 0.87 0 1.602-0.596 1.809-1.401l0.003-0.013 0.784-3.136 0.784 3.136c0.209 0.819 0.941 1.414 1.811 1.414 0.001 0 0.001 0 0.002 0h2.426c0 0 0 0 0 0 0.727 0 1.357-0.416 1.665-1.023l0.005-0.011c1.019-1.683 1.645-3.705 1.706-5.869l0-0.017c0-5.492-3.734-7.21-3.734-9.315 0-2.613 3.734-3.059 3.734-6.731 0-3.974-3.734-3.57-3.734-6.040v-0.861c-0-1.031-0.836-1.866-1.866-1.866h-1.866c-0 0-0.001 0-0.001 0-1.031 0-1.866 0.836-1.866 1.866v0 1.12c0 0 0 0.001 0 0.001 0 0.763-0.387 1.436-0.976 1.832l-0.008 0.005c-0.331 0.221-0.628 0.489-0.882 0.795-0.254-0.305-0.545-0.568-0.869-0.786l-0.015-0.009c-0.597-0.401-0.984-1.073-0.984-1.836 0-0.001 0-0.001 0-0.002v0-1.12c0-1.030-0.835-1.866-1.866-1.866h-1.867c-1.031 0-1.866 0.836-1.866 1.866v0 0.861c0 0.002 0 0.004 0 0.006 0 0.856-0.49 1.598-1.205 1.961l-0.013 0.006c-1.503 0.757-2.516 2.288-2.516 4.055 0 0.006 0 0.012 0 0.018v-0.001c0 3.629 3.734 4.155 3.734 6.763 0 1.994-3.734 3.829-3.734 9.278zM6.666 8.894c0-2.938 3.734-2.158 3.734-6.040v-0.854h1.866v1.12c0 0.002 0 0.004 0 0.006 0 1.407 0.715 2.647 1.801 3.376l0.015 0.009c0.596 0.401 0.983 1.072 0.984 1.834v0c0 0.516 0.418 0.934 0.934 0.934s0.934-0.418 0.934-0.934v0c0-0 0-0.001 0-0.002 0-0.763 0.387-1.436 0.976-1.832l0.008-0.005c1.101-0.739 1.816-1.979 1.816-3.386 0-0.001 0-0.002 0-0.002v0-1.12h1.866v0.861c0 3.92 3.734 3.076 3.734 6.040 0 2.636-3.734 3.058-3.734 6.763 0 3.276 3.734 4.146 3.734 9.283-0.070 1.876-0.622 3.61-1.536 5.098l0.026-0.046h-2.426l-1.691-6.759c-0.142-0.368-0.494-0.625-0.905-0.625s-0.763 0.257-0.903 0.618l-0.002 0.007-1.693 6.759h-8.026c-0.888-1.443-1.44-3.176-1.51-5.034l-0.001-0.019c0-5.085 3.734-5.99 3.734-9.315 0-3.703-3.734-4.066-3.734-6.726v-0.013z"></path>
</symbol>
<symbol id="icon-shoes" viewBox="0 0 32 32">
<path d="M30 6.324h-9.688c-0.7 0.001-1.309 0.389-1.625 0.962l-0.005 0.010c-0.393-1.673-1.873-2.9-3.64-2.9-2.062 0-3.734 1.672-3.734 3.734 0 0.928 0.338 1.777 0.899 2.43l-0.004-0.005c-0.224 0.047-1.521 0.346-2.027 0.464-0.388 0.119-0.666 0.474-0.666 0.894 0 0.516 0.418 0.934 0.934 0.934 0.065 0 0.129-0.007 0.19-0.019l-0.006 0.001c1.625-0.466 3.296-0.75 4.984-0.846-1.331 1.124-3.067 1.808-4.962 1.808-0.006 0-0.012 0-0.019-0h0.001c-5.029 0.002-9.255 3.442-10.453 8.098l-0.016 0.075c-0.050 0.203-0.016 1.021-0.028 2.092 0 1.546 1.254 2.8 2.8 2.8v0h16.028c0.772-0.003 1.471-0.315 1.979-0.819l0.661-0.661 0.661 0.661c0.508 0.504 1.206 0.817 1.978 0.819h4.828c1.546 0 2.8-1.254 2.8-2.8v0-15.866c0-1.031-0.836-1.866-1.866-1.866v0zM15.068 10.056c-1.030-0-1.866-0.836-1.866-1.866s0.836-1.866 1.866-1.866 1.866 0.836 1.866 1.866v0 1.866h-1.867zM10.631 15.656c0.983-0.002 1.932-0.149 2.826-0.421l-0.069 0.018c0.319 0.374 0.659 0.73 1.019 1.064 0.169 0.169 0.403 0.274 0.661 0.274 0.516 0 0.934-0.418 0.934-0.934 0-0.258-0.105-0.492-0.274-0.661l-0.515-0.515c0.234-0.126 0.467-0.256 0.689-0.403l1.307 1.307c0.169 0.169 0.403 0.274 0.661 0.274 0.516 0 0.934-0.418 0.934-0.934 0-0.258-0.105-0.492-0.274-0.661v0l-1.17-1.168c0.186-0.187 0.373-0.374 0.534-0.56l1.182 1.182c0.169 0.169 0.403 0.274 0.661 0.274 0.516 0 0.934-0.418 0.934-0.934 0-0.258-0.105-0.492-0.274-0.661v0l-1.418-1.416c0.61-1.078 0.704-1.36 1.334-2.59h9.686v13.066h-27.652c1.35-3.31 4.544-5.6 8.272-5.6 0.004 0 0.007 0 0.011 0h-0.001zM29.068 24.99h-4.828c-0.59 0-0.8-0.483-1.32-0.934-0.343-0.327-0.808-0.528-1.32-0.528s-0.977 0.201-1.32 0.529l0.001-0.001c-0.52 0.452-0.732 0.934-1.32 0.934h-16.026c-0.515-0-0.933-0.418-0.933-0.934v0-0.933h28v0.933c0 0.516-0.418 0.934-0.934 0.934v0z"></path>
</symbol>
<symbol id="icon-pants" viewBox="0 0 32 32">
<path d="M22.534 0.134h-13.179c-0.001 0-0.002 0-0.004 0-0.99 0-1.8 0.771-1.862 1.745l-0 0.005-1.751 28c-0.002 0.035-0.004 0.076-0.004 0.118 0 1.031 0.836 1.866 1.866 1.866 0.002 0 0.003 0 0.005 0h3.817c0.922-0 1.688-0.67 1.839-1.549l0.002-0.011 2.682-16.096 2.682 16.096c0.153 0.89 0.918 1.558 1.84 1.558h3.818c0.001 0 0.003 0 0.004 0 1.031 0 1.866-0.836 1.866-1.866 0-0.041-0.001-0.081-0.004-0.121l0 0.005-1.751-28c-0.063-0.98-0.873-1.75-1.863-1.75-0.001 0-0.003 0-0.004 0h0zM22.534 2l0.205 3.287c-1.264-0.574-2.128-1.825-2.128-3.279 0-0.003 0-0.006 0-0.009v0h1.923zM11.278 2c0 0.002 0 0.005 0 0.007 0 1.454-0.863 2.706-2.106 3.271l-0.023 0.009 0.205-3.287h1.923zM20.467 30l-3.603-21.62c-0.078-0.443-0.46-0.775-0.92-0.775s-0.841 0.332-0.919 0.769l-0.001 0.006-3.603 21.62h-3.817l1.411-22.558c2.334-0.788 4.008-2.904 4.128-5.428l0.001-0.014h1.866v2.8c0 0.516 0.418 0.934 0.934 0.934s0.934-0.418 0.934-0.934v-2.8h1.866c0.121 2.537 1.795 4.654 4.086 5.429l0.042 0.012 1.411 22.558h-3.817z"></path>
</symbol>
<symbol id="icon-shirt" viewBox="0 0 32 32">
<path d="M9.546 30h13.067c1.031 0 1.866-0.836 1.866-1.866v0-15.48l1.48 1.48c0.342 0.328 0.808 0.53 1.32 0.53s0.978-0.202 1.321-0.53l-0.001 0.001 2.414-2.414c0.338-0.338 0.547-0.805 0.547-1.32s-0.209-0.982-0.547-1.32l-6.262-6.261c-0.504-0.506-1.201-0.819-1.971-0.819-0.002 0-0.004 0-0.007 0h-13.388c-0.002 0-0.005 0-0.008 0-0.77 0-1.467 0.313-1.971 0.819l-6.261 6.261c-0.338 0.338-0.547 0.804-0.547 1.32s0.209 0.982 0.547 1.32l2.414 2.414c0.342 0.328 0.808 0.53 1.32 0.53s0.978-0.202 1.321-0.53l-0.001 0.001 1.48-1.48v15.48c0 1.031 0.836 1.866 1.866 1.866v0zM18.708 3.866c-0.39 1.096-1.419 1.867-2.628 1.867s-2.238-0.771-2.622-1.847l-0.006-0.019h5.256zM4.88 12.814l-2.414-2.414 6.261-6.261c0.174-0.174 0.412-0.272 0.658-0.272h2.123c0.449 2.146 2.325 3.735 4.573 3.735s4.124-1.589 4.568-3.705l0.005-0.030h2.122c0.247 0 0.484 0.098 0.658 0.272l6.258 6.261-2.414 2.414-3.072-3.074c-0.169-0.17-0.403-0.275-0.662-0.275-0.516 0-0.934 0.418-0.934 0.934 0 0.001 0 0.001 0 0.002v-0 17.734h-13.066v-17.734c0-0.001 0-0.002 0-0.002 0-0.515-0.418-0.933-0.933-0.933-0.258 0-0.492 0.105-0.661 0.274l-3.074 3.074z"></path>
</symbol>
<symbol id="icon-jacket" viewBox="0 0 32 32">
<path d="M27.879 7.132c-0.304-0.746-0.907-1.316-1.655-1.571l-0.019-0.006-4.303-1.435-1.15-2.299c-0.455-0.902-1.374-1.509-2.435-1.509-0.002 0-0.005 0-0.007 0h-5.034c-0.003 0-0.006 0-0.009 0-1.061 0-1.98 0.608-2.428 1.494l-0.007 0.016-1.15 2.299-4.304 1.435c-0.767 0.261-1.369 0.831-1.667 1.558l-0.007 0.018-3.067 7.669c-0.206 0.498-0.325 1.076-0.325 1.682 0 0.003 0 0.007 0 0.010v-0.001 11.136c0 1.006 0.815 1.821 1.821 1.821h1.822c1.006 0 1.821-0.815 1.821-1.821v0-2.597l0.911-3.038v2.043c0.058 1.080 0.389 2.071 0.925 2.921l-0.015-0.025v2.516c0 0 0 0 0 0.001 0 1.006 0.815 1.821 1.821 1.821 0 0 0.001 0 0.001 0h12.748c0 0 0 0 0.001 0 1.006 0 1.821-0.815 1.821-1.821 0-0 0-0.001 0-0.001v0-2.515c0.521-0.824 0.852-1.816 0.909-2.88l0.001-0.015v-2.045l0.911 3.038v2.597c0 1.005 0.815 1.82 1.821 1.821h1.822c1.006 0 1.821-0.815 1.821-1.821v0-11.136c0-0.003 0-0.006 0-0.009 0-0.606-0.12-1.184-0.337-1.711l0.011 0.030-3.067-7.671zM25.788 7.378c-0.852 1.258-1.737 2.74-2.539 4.272l-0.124 0.261c-0.097 0.364-0.016-0.059-0.048 10.255-1.509 0-2.732-1.223-2.732-2.732v0c0-0.503-0.408-0.911-0.911-0.911s-0.911 0.408-0.911 0.911v0c0 2.514 2.039 4.553 4.553 4.553v0 0.052c-0.041 0.66-0.245 1.266-0.572 1.786l0.009-0.016h-5.811v-16.813l4.688-3.125c5.201 1.769 4.035 1.297 4.398 1.508zM11.968 3.638l1.127 1.972-1.584-1.057 0.457-0.915zM19.631 3.638l0.457 0.91-1.584 1.057 1.127-1.967zM18.382 2.152l-2.59 4.52-2.582-4.52c0.369-0.019 4.793-0.019 5.165 0h0.008zM10.193 5.869l4.688 3.125v16.813h-5.811c-0.32-0.504-0.525-1.11-0.562-1.76l-0-0.010v-0.052c2.514-0 4.552-2.039 4.552-4.553v0c0-0.008 0-0.017 0-0.027 0-0.503-0.408-0.911-0.911-0.911s-0.911 0.408-0.911 0.911c0 0.009 0 0.019 0 0.028l-0-0.001c0 1.509-1.223 2.732-2.732 2.732v0c-0.033-10.311 0.049-9.9-0.047-10.255-0.926-1.791-1.811-3.274-2.771-4.701l0.107 0.168c0.279-0.164 2.54-0.874 4.398-1.508zM2.133 27.629v-1.821h1.822v1.821h-1.822zM6.572 16.043l-2.384 7.944h-2.054v-7.493c0-0 0-0 0-0.001 0-0.365 0.072-0.714 0.202-1.032l-0.007 0.018 2.482-6.203 1.876 3.125v2.857c0 0.266-0.039 0.531-0.115 0.785zM9.418 29.45v-1.821h12.748v1.821h-12.748zM24.898 15.259v-2.857l1.876-3.125 2.482 6.205c0.129 0.322 0.195 0.665 0.195 1.012v7.493h-2.056l-2.384-7.945c-0.073-0.233-0.115-0.502-0.115-0.78 0-0.001 0-0.002 0-0.003v0zM27.629 27.629v-1.821h1.822v1.821h-1.822z"></path>
</symbol>
<symbol id="icon-ArrowR" viewBox="0 0 32 32">
<path d="M7 16.133c0-0.273 0.105-0.537 0.293-0.73 0.187-0.193 0.441-0.303 0.707-0.303h13.59l-1.3-1.331c-0.182-0.189-0.294-0.446-0.294-0.73 0-0.001 0-0.002 0-0.004v0c0-0.275 0.106-0.538 0.294-0.733 0.18-0.187 0.431-0.303 0.71-0.303h0c0.267 0 0.522 0.109 0.71 0.303l3 3.097c0.139 0.145 0.233 0.329 0.27 0.529 0.011 0.059 0.018 0.126 0.018 0.195 0 0.355-0.174 0.669-0.442 0.862l-0.003 0.002c-0.163 0.113-0.356 0.175-0.553 0.176h-16c-0.265 0-0.52-0.109-0.707-0.302-0.182-0.188-0.293-0.445-0.293-0.728 0-0.001 0-0.002 0-0.002v0z"></path>
<path d="M20 19.23c0-0.002-0-0.004-0-0.007 0-0.14 0.027-0.274 0.077-0.396l-0.003 0.007c0.050-0.127 0.123-0.24 0.216-0.337l3-3.097c0.178-0.188 0.43-0.304 0.708-0.304 0.139 0 0.272 0.029 0.392 0.082l-0.006-0.002c0.122 0.052 0.233 0.128 0.326 0.225s0.167 0.21 0.218 0.336c0.048 0.117 0.076 0.252 0.076 0.394 0 0.285-0.112 0.544-0.294 0.735l0-0-3 3.097c-0.090 0.094-0.198 0.171-0.319 0.224l-0.006 0.003c-0.114 0.050-0.246 0.080-0.386 0.080-0.279 0-0.531-0.118-0.708-0.306l-0-0c-0.091-0.094-0.164-0.206-0.214-0.33l-0.002-0.007c-0.047-0.115-0.074-0.249-0.074-0.389 0-0.002 0-0.005 0-0.007v0z"></path>
</symbol>
<symbol id="icon-envelope" viewBox="0 0 32 32">
<path d="M27.2 3.2h-22.4c-2.651 0-4.8 2.149-4.8 4.8v0 16c0 2.651 2.149 4.8 4.8 4.8v0h22.4c2.651 0 4.8-2.149 4.8-4.8v0-16c0-2.651-2.149-4.8-4.8-4.8v0zM26.283 6.4l-9.323 7.68c-0.264 0.203-0.599 0.325-0.963 0.325-0.337 0-0.649-0.105-0.906-0.283l0.005 0.003-9.379-7.725h20.566zM27.2 25.6h-22.4c-0.884 0-1.6-0.716-1.6-1.6v0-15.52l9.92 8.16c0.784 0.592 1.776 0.949 2.85 0.949 0.004 0 0.008 0 0.011 0h-0.001c1.116-0.002 2.144-0.375 2.969-1.002l-0.012 0.009 9.862-8.115v15.52c0 0.884-0.716 1.6-1.6 1.6v0z"></path>
</symbol>
<symbol id="icon-basket" viewBox="0 0 32 32">
<path d="M11.789 26.947c-1.395 0-2.526 1.131-2.526 2.526s1.131 2.526 2.526 2.526v0c1.395 0 2.526-1.131 2.526-2.526s-1.131-2.526-2.526-2.526v0zM29.474 21.895h-20.211c-0.93 0-1.684-0.754-1.684-1.684s0.754-1.684 1.684-1.684v0h14.301c2.294-0.008 4.228-1.536 4.85-3.629l0.009-0.036 2.669-9.347c0.041-0.138 0.064-0.297 0.064-0.461 0-0.93-0.753-1.683-1.683-1.684h-20.648c-0.716-1.973-2.57-3.358-4.748-3.368h-1.551c-0.93 0-1.684 0.754-1.684 1.684s0.754 1.684 1.684 1.684v0h1.551c0.765 0.003 1.41 0.512 1.617 1.209l0.003 0.012 0.261 0.918v0.008l2.765 9.671c-2.55 0.281-4.516 2.423-4.516 5.024 0 2.791 2.262 5.053 5.053 5.053 0.001 0 0.001 0 0.002 0h20.21c0.93 0 1.684-0.754 1.684-1.684s-0.754-1.684-1.684-1.684v0zM27.24 6.737l-2.055 7.198c-0.21 0.711-0.857 1.222-1.623 1.223h-11.345l-0.428-1.502-1.977-6.919h17.428zM25.263 26.947c-1.395 0-2.526 1.131-2.526 2.526s1.131 2.526 2.526 2.526v0c1.395 0 2.526-1.131 2.526-2.526s-1.131-2.526-2.526-2.526v0z"></path>
</symbol>
<symbol id="icon-search" viewBox="0 0 32 32">
<path fill="#fff" style="fill: var(--color3, #fff)" d="M29.827 27.436l-5.726-5.709c1.774-2.244 2.846-5.115 2.846-8.236 0-0.006 0-0.012 0-0.017v0.001c0-7.441-6.032-13.474-13.474-13.474s-13.474 6.032-13.474 13.474c0 7.441 6.032 13.474 13.474 13.474v0c0.005 0 0.011 0 0.017 0 3.121 0 5.992-1.072 8.264-2.868l-0.028 0.021 5.709 5.726c0.306 0.309 0.73 0.5 1.199 0.5 0.701 0 1.302-0.428 1.557-1.036l0.004-0.011c0.082-0.191 0.13-0.414 0.13-0.648 0-0.468-0.191-0.891-0.498-1.196l-0-0zM3.368 13.474c0-5.581 4.524-10.105 10.105-10.105s10.105 4.524 10.105 10.105v0c0 5.581-4.524 10.105-10.105 10.105s-10.105-4.524-10.105-10.105v0z"></path>
</symbol>
<symbol id="icon-logo" viewBox="0 0 32 32">
<path d="M19.692 16c0 5.438-4.408 9.846-9.846 9.846s-9.846-4.408-9.846-9.846c0-5.438 4.408-9.846 9.846-9.846s9.846 4.408 9.846 9.846z"></path>
<path stroke-linejoin="miter" stroke-linecap="butt" stroke-miterlimit="4" stroke-width="3.2821" d="M30.359 16c0 4.532-3.674 8.205-8.205 8.205s-8.205-3.674-8.205-8.205c0-4.532 3.674-8.205 8.205-8.205s8.205 3.674 8.205 8.205z"></path>
</symbol>
</defs>
</svg>
