<svg aria-hidden="true" style="position:absolute;width:0;height:0;overflow:hidden" xmlns="http://www.w3.org/2000/svg"><defs><symbol id="icon-StarYellow" viewBox="0 0 32 32"><path fill="#fbea53" style="fill:var(--color1, #fbea53)" d="m16 1 3.592 11.056h11.626l-9.406 6.832 3.592 11.056L16 23.112l-9.404 6.832 3.592-11.056-9.404-6.832h11.624L16 1z"/></symbol><symbol id="icon-StarGrey" viewBox="0 0 32 32"><path fill="#f6f7fb" style="fill:var(--color2, #f6f7fb)" d="m16 1 3.592 11.056h11.626l-9.406 6.832 3.592 11.056L16 23.112l-9.404 6.832 3.592-11.056-9.404-6.832h11.624L16 1z"/></symbol><symbol id="icon-phone" viewBox="0 0 32 32"><path fill="#fff" style="fill:var(--color3, #fff)" d="M28.099 17.524c-.335 0-.686-.107-1.021-.183a14.17 14.17 0 0 1-2.094-.628l.098.033a3.047 3.047 0 0 0-3.771 1.506l-.008.018-.335.686a18.672 18.672 0 0 1-4.054-3.049l.001.001a18.64 18.64 0 0 1-3-3.961l-.048-.093.64-.427a3.053 3.053 0 0 0 1.516-3.8l.007.021a14.292 14.292 0 0 1-.573-1.89l-.021-.106a11.48 11.48 0 0 1-.183-1.036C14.869 2.447 12.998.821 10.748.821l-.07.001h.004-4.614a4.571 4.571 0 0 0-4.525 5.22l-.003-.024C3.258 19.152 13.567 29.43 26.57 31.085l.143.015h.581a4.571 4.571 0 0 0 4.163-2.681l.012-.029a4.582 4.582 0 0 0 .395-1.877v-4.571a4.575 4.575 0 0 0-3.736-4.415l-.028-.004zm.762 9.143v.002c0 .691-.461 1.275-1.092 1.461l-.011.003a1.603 1.603 0 0 1-.664.058C15.354 26.643 6.171 17.423 4.692 5.797l-.013-.128a1.65 1.65 0 0 1 .383-1.252l-.002.002c.28-.318.688-.518 1.143-.518h4.606c.728 0 1.337.511 1.488 1.194l.002.01c.061.416.137.827.229 1.234.175.803.411 1.592.701 2.362l-2.133.99a1.526 1.526 0 0 0-.742 2.036l-.004-.009c2.237 4.716 5.95 8.429 10.533 10.609l.134.057a1.518 1.518 0 0 0 1.168-.004l-.01.004c.387-.141.694-.424.865-.783l.004-.009.945-2.133c.788.282 1.591.515 2.408.701.407.091.818.168 1.234.229a1.527 1.527 0 0 1 1.204 1.49v.036-.002l.03 4.754z"/></symbol><symbol id="icon-earphones" viewBox="0 0 32 32"><path d="M24.706 24.464c.78 0 1.567-.165 2.211-.633.741-.539 1.334-1.313 1.499-2.235.117-.655.08-1.322.08-1.984 0-1.512.009-3.028 0-4.543-.003-.716-.208-1.466-.633-2.048-.535-.735-1.301-1.326-2.214-1.494a4.405 4.405 0 0 0-1.08-.083h.009a3.858 3.858 0 0 0-1.49.385c-.845.396-1.442 1.161-1.776 2.009-.269.682-.217 1.442-.217 2.162v4.759c0 .609.131 1.16.389 1.708.392.845 1.16 1.442 2.008 1.776.383.153.805.217 1.215.22.64.007 1.255-.566 1.224-1.224-.031-.667-.539-1.218-1.224-1.224a2.53 2.53 0 0 1-.336-.024c.107.015.217.031.324.042a2.423 2.423 0 0 1-.606-.171l.016.006.294.123a2.472 2.472 0 0 1-.526-.307l.006.004.248.193a2.609 2.609 0 0 1-.446-.445l-.004-.006.193.248a2.397 2.397 0 0 1-.297-.504l-.006-.016c.039.098.082.196.122.294a2.35 2.35 0 0 1-.163-.577l-.002-.014c.016.107.031.217.043.325-.037-.272-.025-.551-.025-.827v-4.686c0-.319-.018-.643.025-.959a9.035 9.035 0 0 0-.043.325c.031-.205.086-.401.165-.59-.039.098-.082.196-.122.294.08-.187.18-.359.303-.521l-.193.248a2.64 2.64 0 0 1 .444-.446l.006-.004c-.863.654-.944.718-1.025.781l.777-.588c.162-.123.333-.224.52-.303-.098.039-.196.082-.294.122.189-.08.385-.135.59-.165-.107.015-.217.031-.324.043a3.383 3.383 0 0 1 .867.001l-.017-.002a4.792 4.792 0 0 0-.268-.037l-.057-.006c.205.031.401.086.59.165-.098-.039-.196-.082-.294-.122.187.08.359.18.52.303l-.248-.193c.169.132.319.282.451.451l-.193-.248c.123.162.224.333.304.521l-.123-.294c.08.189.135.385.165.59a4.658 4.658 0 0 1-.037-.268l-.006-.057c.037.273.025.551.025.827v4.687c0 .318.018.643-.025.958.016-.107.031-.217.043-.325-.033.221-.091.42-.171.607l.006-.016c.039-.098.083-.196.123-.294-.086.199-.188.37-.308.526l.004-.006.193-.248a2.645 2.645 0 0 1-.445.446l-.006.004.248-.193a2.44 2.44 0 0 1-.504.297l-.016.006.294-.123c-.19.08-.386.135-.591.165.107-.015.217-.031.325-.042a3.928 3.928 0 0 1-.451.025l-.067-.001h.003c-.64 0-1.255.564-1.224 1.224.031.664.539 1.224 1.224 1.224zm-17.59 0c.78 0 1.567-.165 2.21-.633.741-.539 1.335-1.313 1.5-2.235.116-.655.08-1.322.08-1.984 0-1.512.009-3.028 0-4.543-.003-.716-.208-1.466-.633-2.048-.536-.735-1.302-1.326-2.214-1.494a4.405 4.405 0 0 0-1.08-.083h.009a3.868 3.868 0 0 0-1.491.385c-.845.396-1.442 1.161-1.776 2.009-.269.682-.217 1.442-.217 2.162v4.759c0 .609.131 1.16.389 1.708.392.845 1.16 1.442 2.008 1.776.383.153.805.217 1.215.22.64.007 1.256-.566 1.225-1.224-.031-.667-.539-1.218-1.224-1.224-.114 0-.223-.009-.337-.024.107.015.217.031.325.042a2.443 2.443 0 0 1-.607-.171l.016.006.294.123a2.523 2.523 0 0 1-.526-.307l.006.004.248.193a2.645 2.645 0 0 1-.446-.445l-.004-.006.193.248a2.44 2.44 0 0 1-.297-.504l-.006-.016.123.294a2.35 2.35 0 0 1-.163-.577l-.002-.014c.015.107.031.217.042.325-.037-.272-.024-.551-.024-.827v-4.686c0-.319-.018-.643.024-.959a4.792 4.792 0 0 0-.037.268l-.005.056c.034-.221.091-.42.171-.606l-.006.016-.123.294c.08-.187.181-.359.303-.521l-.193.248c.132-.168.281-.319.451-.451l-.248.193c.162-.123.333-.224.52-.303-.098.039-.196.082-.294.122.19-.08.386-.135.591-.165-.107.015-.217.031-.325.043a3.383 3.383 0 0 1 .867.001l-.017-.002a4.792 4.792 0 0 0-.268-.037l-.056-.006c.206.031.402.086.591.165-.098-.039-.196-.082-.294-.122.187.08.359.18.521.303l-.248-.193c.169.132.319.282.451.451l-.193-.248c.123.162.223.333.303.521-.039-.098-.082-.196-.122-.294.079.189.135.385.165.59a5.33 5.33 0 0 1-.037-.267l-.006-.058c.037.273.025.551.025.827v4.687c0 .318.018.643-.025.958.016-.107.031-.217.043-.325-.033.221-.091.42-.171.607l.006-.016c.039-.098.082-.196.122-.294-.086.199-.188.37-.307.526l.004-.006.193-.248a2.677 2.677 0 0 1-.444.446l-.006.004.248-.193a2.461 2.461 0 0 1-.521.303l.294-.123a2.39 2.39 0 0 1-.591.165c.108-.015.217-.031.325-.042a3.928 3.928 0 0 1-.451.025l-.067-.001h.003c-.64 0-1.255.564-1.224 1.224.027.664.539 1.224 1.224 1.224z"/><path d="M5.953 20.763v-6.75c0-.631.015-1.258.098-1.883a4.53 4.53 0 0 0-.037.268l-.006.057c.149-1.069.423-2.036.812-2.942l-.028.074c-.039.098-.082.196-.122.294.413-.96.906-1.787 1.491-2.539l-.019.026-.193.248a11.732 11.732 0 0 1 2.022-2.029l.026-.019-.248.193a11.458 11.458 0 0 1 2.439-1.443l.075-.029c-.098.039-.196.082-.294.122.832-.36 1.799-.635 2.808-.777l.06-.007a8.746 8.746 0 0 1-.325.043 11.621 11.621 0 0 1 3.037.007l-.059-.006a4.593 4.593 0 0 0-.267-.037l-.057-.006c.986.135 1.95.398 2.868.784-.098-.039-.196-.082-.294-.122.96.413 1.787.906 2.539 1.491l-.026-.019-.248-.193a11.732 11.732 0 0 1 2.029 2.022l.019.026-.193-.248a11.458 11.458 0 0 1 1.443 2.439l.029.075c-.039-.098-.082-.196-.122-.294.385.918.649 1.883.784 2.868a4.792 4.792 0 0 1-.037-.268l-.006-.056c.086.649.098 1.298.098 1.95v7.399c0 .566.025 1.142-.049 1.704.016-.106.031-.217.043-.324-.07.503-.199.958-.381 1.385l.013-.035.123-.294a5.5 5.5 0 0 1-.722 1.231l.009-.012.193-.248c-.284.363-.601.68-.953.956l-.012.009.248-.193a5.698 5.698 0 0 1-1.219.713c.098-.039.196-.082.294-.122a5.29 5.29 0 0 1-1.321.364l-.029.003c.107-.015.217-.031.325-.042-.475.061-.952.049-1.43.049h-2.228c-.64 0-1.255.563-1.225 1.224.031.664.539 1.224 1.224 1.224h2.256c.285 0 .569.007.854-.003.885-.027 1.708-.235 2.516-.581a6.512 6.512 0 0 0 3.199-3.037c.392-.797.615-1.61.697-2.495.022-.227.022-.454.022-.683v-4.748c0-1.302.003-2.602 0-3.903a12.294 12.294 0 0 0-.729-4.191 13.02 13.02 0 0 0-2.275-3.913l.016.019c-1.827-2.179-4.479-3.729-7.28-4.209a12.527 12.527 0 0 0-2.233-.195c-.86 0-1.701.084-2.514.245l.082-.013a12.24 12.24 0 0 0-4.022 1.565C7.05 4.477 5.162 6.791 4.19 9.537l-.027.089a12.383 12.383 0 0 0-.661 4.007v7.133c0 .64.563 1.255 1.224 1.224s1.224-.539 1.224-1.224z"/><path d="M17.729 27.844c0 .086-.006.171-.018.254.016-.107.031-.217.043-.325-.025.15-.065.297-.119.438l.123-.294c-.065.15-.147.288-.245.42l.193-.248a1.88 1.88 0 0 1-.312.312l.248-.193c-.129.098-.27.18-.42.245l.294-.123a1.733 1.733 0 0 1-.428.118l-.01.001c.107-.015.217-.031.325-.043-.401.052-.82.019-1.224.019-.41 0-.836.033-1.243-.016.107.015.217.031.325.043a1.98 1.98 0 0 1-.473-.131l.013.005.294.123a2.058 2.058 0 0 1-.406-.239l.005.004.248.193a2.113 2.113 0 0 1-.325-.323l-.003-.004.193.248a1.997 1.997 0 0 1-.231-.389l-.005-.013c.039.098.083.196.122.294a1.886 1.886 0 0 1-.124-.448l-.001-.011c.016.107.031.217.043.325a1.93 1.93 0 0 1 .001-.508l-.001.01a8.746 8.746 0 0 0-.043.325c.025-.15.065-.297.12-.438-.039.098-.083.196-.123.294.065-.15.148-.288.246-.419l-.193.248c.091-.117.196-.221.312-.313l-.248.193c.129-.098.27-.18.42-.245l-.294.123c.14-.059.287-.098.438-.119-.107.015-.217.031-.325.043.401-.052.821-.019 1.225-.019.41 0 .836-.033 1.243.016a4.792 4.792 0 0 0-.268-.037l-.057-.006c.159.025.31.065.46.126l-.294-.123c.144.064.276.141.401.236l-.248-.193c.123.098.23.205.328.327l-.193-.248a2 2 0 0 1 .236.402c-.039-.098-.082-.196-.122-.294.061.147.101.3.125.459a5.957 5.957 0 0 1-.038-.269l-.005-.055c.012.082.016.162.018.245.003.315.135.64.359.866.211.212.56.374.866.359.655-.031 1.234-.539 1.224-1.224-.006-.557-.156-1.139-.465-1.61-.291-.441-.686-.842-1.163-1.078a3.201 3.201 0 0 0-1.415-.349h-1.962a3.152 3.152 0 0 0-1.477.384l.017-.008c-.441.233-.784.591-1.071.993-.297.416-.423.908-.487 1.411-.068.557.073 1.117.312 1.62.229.49.618.875 1.059 1.182.558.385 1.225.49 1.886.49h1.727a3.146 3.146 0 0 0 1.479-.385l-.017.008c.97-.515 1.565-1.576 1.576-2.661.007-.64-.569-1.255-1.224-1.224-.67.034-1.218.542-1.224 1.228z"/></symbol><symbol id="icon-Broken" viewBox="0 0 32 32"><path d="M7.12 1.591c-.193.863-.383 1.727-.576 2.59l-.936 4.231c-.076.349-.157.697-.232 1.047-.217.989-.325 2.011-.266 3.024a11.091 11.091 0 0 0 2.92 6.882 10.743 10.743 0 0 0 2.958 2.243l.06.028a11.297 11.297 0 0 0 4.086 1.154c2.602.233 5.324-.554 7.396-2.143 1.063-.814 1.969-1.767 2.688-2.9a10.53 10.53 0 0 0 1.391-3.291l.014-.072c.272-1.206.358-2.464.205-3.695a17.924 17.924 0 0 0-.315-1.741l.024.121-.844-3.811-.772-3.478c-.015-.065-.027-.129-.042-.193-.059-.257-.239-.481-.438-.637A1.191 1.191 0 0 0 23.7.687H10.194c-.622 0-1.246-.009-1.87 0h-.025c-.64 0-1.255.564-1.224 1.224.031.664.539 1.225 1.224 1.225h13.507c.621 0 1.245.012 1.87 0h.024l-1.182-.9c.212.958.426 1.916.637 2.877.321 1.442.64 2.887.961 4.328.114.505.233 1.01.3 1.525a4.53 4.53 0 0 1-.037-.268l-.006-.057a9.853 9.853 0 0 1-.008 2.629l.006-.051c.015-.107.03-.217.042-.325a9.803 9.803 0 0 1-.692 2.513l.024-.064.123-.294a9.905 9.905 0 0 1-1.272 2.181l.017-.023.193-.248a9.894 9.894 0 0 1-1.738 1.744l-.022.016.248-.193a9.752 9.752 0 0 1-2.07 1.221l-.064.025.294-.123a9.737 9.737 0 0 1-2.48.679c.107-.015.217-.03.325-.042a10.025 10.025 0 0 1-2.648-.006l.051.006c.108.016.217.031.325.043a9.777 9.777 0 0 1-2.543-.704l.064.024c.098.039.196.082.294.122a9.858 9.858 0 0 1-2.156-1.263l.023.017.248.193a9.962 9.962 0 0 1-1.744-1.738l-.017-.022.193.248a9.826 9.826 0 0 1-1.23-2.094l-.025-.064.123.294a9.495 9.495 0 0 1-.661-2.397l-.006-.052c.015.107.031.217.042.325a9.892 9.892 0 0 1 .003-2.629l-.006.051a5.33 5.33 0 0 0-.037.267l-.006.058c.061-.457.165-.906.263-1.356l.407-1.834c.33-1.494.664-2.991.995-4.485.08-.352.157-.704.236-1.056.071-.321.046-.655-.123-.943-.15-.254-.441-.496-.731-.563C8.321.657 7.969.673 7.69.85c-.266.174-.499.426-.569.738z"/><path d="M14.775 21.618v8.467c0 .64.564 1.255 1.225 1.224.664-.031 1.224-.539 1.224-1.224v-8.467c0-.64-.564-1.255-1.224-1.224-.664.031-1.224.539-1.224 1.224z"/><path d="M10.291 31.309h10.004c.462 0 .927.009 1.39 0h.018c.64 0 1.255-.563 1.224-1.224-.031-.664-.539-1.224-1.224-1.224H11.699c-.462 0-.927-.009-1.39 0h-.018c-.64 0-1.255.563-1.224 1.224.031.664.539 1.224 1.224 1.224zm7.601-18.425-.689-1.959c-.364-1.041-.728-2.082-1.096-3.122-.083-.239-.168-.475-.251-.713l-1.507 1.506 2.312.327.33.046a1.223 1.223 0 0 0 1.194-.315c.325-.325.404-.756.315-1.191-.138-.658-.272-1.319-.41-1.977-.221-1.056-.438-2.112-.658-3.168-.049-.242-.101-.484-.15-.723-.061-.291-.312-.585-.563-.731-.264-.153-.649-.217-.943-.122-.297.095-.581.278-.731.563a1.346 1.346 0 0 0-.123.943c.137.658.272 1.319.41 1.977.221 1.056.438 2.112.658 3.169.049.242.101.483.15.722l1.506-1.507-2.312-.327-.33-.046a1.237 1.237 0 0 0-.661.002l.009-.002a1.214 1.214 0 0 0-.542.315c-.294.294-.456.787-.315 1.191l.688 1.959c.364 1.041.729 2.081 1.096 3.122.083.239.168.475.251.713.107.303.278.566.563.731.263.153.649.218.943.123.297-.095.581-.278.731-.563.147-.279.233-.633.123-.943z"/></symbol><symbol id="icon-Card" viewBox="0 0 32 32"><path d="M28.434 7.184V22.72c0 .692.003 1.384 0 2.075 0 .065-.003.125-.012.189.015-.106.031-.217.043-.324a1.447 1.447 0 0 1-.086.328l.003-.01.123-.294a1.453 1.453 0 0 1-.183.316l.003-.003.193-.248a1.438 1.438 0 0 1-.224.224l-.003.002.248-.193a1.44 1.44 0 0 1-.312.181c.098-.039.196-.083.294-.123a1.42 1.42 0 0 1-.318.083c.106-.015.217-.031.324-.043-.26.031-.532.013-.795.013H3.677c-.067 0-.135-.004-.202-.013.108.016.218.031.325.043a1.433 1.433 0 0 1-.328-.086l.01.003.294.123a1.453 1.453 0 0 1-.316-.183l.003.003.248.193a1.438 1.438 0 0 1-.224-.224l-.002-.003.193.248a1.46 1.46 0 0 1-.177-.303l-.004-.009c.039.098.082.196.122.294a1.366 1.366 0 0 1-.081-.31l-.001-.008c.015.107.03.217.042.325-.022-.202-.012-.407-.012-.609V9.304c0-.698-.003-1.396 0-2.097 0-.065.003-.125.013-.189a4.593 4.593 0 0 0-.037.267l-.006.057c.015-.11.042-.214.082-.318-.039.098-.082.196-.122.294.049-.114.107-.217.18-.313l-.193.248c.067-.082.141-.159.227-.227l-.248.193a1.44 1.44 0 0 1 .312-.181c-.098.039-.196.083-.294.123a1.36 1.36 0 0 1 .311-.082l.008-.001c-.107.015-.217.031-.325.043.26-.031.532-.013.796-.013h24.055c.067 0 .135.003.202.013a4.724 4.724 0 0 0-.269-.037l-.057-.006a1.4 1.4 0 0 1 .319.083l-.294-.123c.113.049.217.107.312.181l-.248-.193c.083.067.159.141.227.227.53.707.467.626.404.545l-.597-.793c.073.098.135.202.18.313-.039-.098-.082-.196-.122-.294.04.104.067.208.083.318a4.53 4.53 0 0 1-.037-.268l-.006-.057c.009.056.012.11.012.168.007.319.131.64.358.867.212.211.56.373.867.358.655-.031 1.237-.539 1.224-1.224a2.593 2.593 0 0 0-.714-1.761l.001.001c-.451-.478-1.066-.713-1.708-.765-.076-.007-.157-.003-.236-.003H3.716c-.432 0-.827.098-1.219.279A2.378 2.378 0 0 0 1.382 6.06c-.169.374-.266.72-.269 1.136v17.445c0 .089-.003.178.003.266.043.646.282 1.258.754 1.714a2.573 2.573 0 0 0 1.748.725h.002c.187.004.371 0 .558 0h24.116c.453 0 .882-.104 1.283-.311.818-.423 1.301-1.329 1.31-2.229.003-.309 0-.615 0-.924V7.186c0-.64-.563-1.255-1.224-1.224-.664.031-1.228.539-1.228 1.224z"/><path d="M28.434 10.514v4.197l1.225-1.224H3.445c-.355 0-.71-.007-1.062 0h-.046l1.224 1.224v-4.197l-1.224 1.224H28.55c.355 0 .71.003 1.062 0h.046c.64 0 1.255-.564 1.225-1.224-.031-.664-.539-1.224-1.224-1.224H3.445c-.355 0-.71-.003-1.062 0h-.046c-.662 0-1.224.56-1.224 1.224v4.197c0 .662.56 1.224 1.224 1.224H28.55c.355 0 .71.003 1.062 0h.046c.662 0 1.225-.56 1.225-1.224v-4.197c0-.64-.564-1.255-1.224-1.224-.662.027-1.224.536-1.224 1.224zM6.774 21.528h7.564c.64 0 1.255-.563 1.224-1.224-.031-.664-.539-1.224-1.224-1.224H6.772c-.639 0-1.255.564-1.224 1.224.027.665.535 1.224 1.224 1.224z"/></symbol><symbol id="icon-Truck" viewBox="0 0 32 32"><path d="M18.143 8.341V20.47c0 .557-.012 1.117 0 1.674v.024l1.224-1.224H10.22l1.224 1.224c-.007-.719-.211-1.479-.633-2.066a4.185 4.185 0 0 0-.914-.935l-.011-.008a3.65 3.65 0 0 0-.961-.496c-1.356-.502-3.043-.04-3.971 1.065-.581.695-.915 1.528-.924 2.442l1.224-1.224H4.127c-.383 0-.78.033-1.163-.009.107.015.217.031.324.042a1.223 1.223 0 0 1-.247-.064l.009.003c.098.039.196.082.294.122a1.078 1.078 0 0 1-.247-.142l.003.002.248.193a1.14 1.14 0 0 1-.167-.166l.191.246a1.106 1.106 0 0 1-.141-.245l.123.294a1.073 1.073 0 0 1-.061-.233l-.001-.006c.016.107.031.217.043.325-.016-.147-.009-.297-.009-.444V9.893c0-.511-.007-1.022 0-1.53 0-.049.003-.095.009-.144a4.593 4.593 0 0 0-.037.267l-.006.057c.014-.09.035-.17.064-.247l-.003.009-.123.294c.037-.089.083-.168.141-.246l-.193.248c.052-.064.107-.12.168-.168l-.248.193c.076-.059.156-.104.245-.141l-.294.123c.08-.031.156-.049.238-.061a7.184 7.184 0 0 1-.267.037l-.057.006c.168-.018.343-.009.514-.009h13.05c.609 0 1.219-.009 1.827 0 .049 0 .098.003.147.009a4.724 4.724 0 0 0-.269-.037l-.056-.005c.083.012.163.033.239.061l-.294-.123c.089.037.169.083.245.141l-.248-.193c.065.052.119.107.169.168l-.193-.248c.058.077.105.157.141.246l-.123-.294c.031.079.049.156.061.238a5.957 5.957 0 0 1-.038-.269l-.006-.055c.007.037.009.08.009.123.007.318.132.64.359.866.211.212.56.374.866.359.652-.031 1.24-.539 1.224-1.224a2.321 2.321 0 0 0-.596-1.511l.002.002a2.078 2.078 0 0 0-1.169-.655 3.19 3.19 0 0 0-.549-.052H4.904c-.603 0-1.209-.012-1.812 0A2.258 2.258 0 0 0 .966 7.713l-.004.016a2.368 2.368 0 0 0-.086.707v12.741c.007.386.101.72.27 1.066.189.385.569.747.961.918.336.15.652.236 1.025.239h2.121c.667 0 1.219-.56 1.225-1.224 0-.114.009-.227.024-.34a4.593 4.593 0 0 0-.037.267l-.006.057c.031-.22.092-.431.175-.633l-.123.294c.086-.199.196-.383.328-.554l-.193.248c.126-.159.266-.3.426-.426l-.248.193a2.6 2.6 0 0 1 .554-.328l-.294.123c.184-.079.397-.14.62-.173l.014-.002c-.107.015-.217.031-.325.043a2.563 2.563 0 0 1 .693.001l-.013-.002a4.593 4.593 0 0 0-.267-.037l-.057-.006c.22.031.431.091.633.174-.098-.039-.196-.083-.294-.123.199.086.383.196.554.328l-.248-.193c.159.126.299.266.421.42l.004.005-.193-.248c.132.172.242.355.328.555l-.123-.294c.086.204.144.416.174.633a4.86 4.86 0 0 1-.037-.269l-.005-.056c.015.114.022.227.024.34.007.662.557 1.225 1.224 1.225h9.147c.661 0 1.224-.56 1.224-1.224V10.045c0-.557.01-1.117 0-1.674v-.025c0-.64-.563-1.255-1.224-1.224-.661.028-1.221.535-1.221 1.221z"/><path d="M28.671 17.16v3.57c0 .189.012.385-.009.579.015-.107.03-.217.042-.325-.014.09-.035.171-.064.248l.003-.009.123-.294a1.065 1.065 0 0 1-.143.247l.002-.003.193-.248a1.174 1.174 0 0 1-.169.169l.248-.193a1.07 1.07 0 0 1-.246.14c.098-.039.196-.082.294-.122a1.059 1.059 0 0 1-.233.06l-.006.001c.107-.015.217-.03.325-.042-.315.033-.643.009-.961.009h-.925l1.224 1.224c-.007-.72-.211-1.479-.633-2.066a4.185 4.185 0 0 0-.914-.935l-.011-.008a3.65 3.65 0 0 0-.961-.496c-1.358-.502-3.043-.039-3.971 1.066-.581.695-.914 1.527-.924 2.442l1.224-1.224h-2.816l1.224 1.224V12.65c0-.441.009-.882 0-1.322v-.018l-1.224 1.225h4.803c.261 0 .533-.019.79.012a4.724 4.724 0 0 0-.269-.037l-.056-.005c.11.018.211.046.315.085-.098-.039-.196-.082-.294-.122.116.049.223.111.321.187l-.248-.193c.202.162.361.385.526.581.297.355.594.711.895 1.066.694.829 1.389 1.662 2.087 2.492.169.202.34.401.505.603l-.193-.248c.071.095.125.189.174.297-.039-.098-.082-.196-.122-.294.042.107.073.214.091.33a4.724 4.724 0 0 1-.037-.269l-.005-.056a.86.86 0 0 1 .022.196c.006.319.131.64.358.867.211.211.56.374.867.358.652-.03 1.236-.539 1.224-1.224a2.752 2.752 0 0 0-.326-1.251l.007.015c-.095-.184-.233-.346-.364-.505l-.162-.193-2.973-3.551c-.199-.239-.398-.478-.597-.714-.487-.579-1.23-.878-1.977-.878-.885-.003-1.772 0-2.657 0s-1.772-.009-2.657 0h-.046c-.662 0-1.225.56-1.225 1.224v9.524c0 .441-.007.882 0 1.322v.018c0 .661.56 1.224 1.224 1.224h2.817c.667 0 1.218-.56 1.224-1.224 0-.114.009-.227.024-.34-.015.107-.031.217-.042.324.035-.237.096-.45.181-.651l-.006.017-.123.294c.086-.199.196-.383.328-.554l-.193.248c.125-.159.266-.3.425-.426l-.248.193a2.6 2.6 0 0 1 .554-.328l-.294.123c.205-.086.416-.144.633-.174-.107.015-.217.031-.325.042a2.563 2.563 0 0 1 .693.001l-.013-.002a7.055 7.055 0 0 0-.266-.037l-.057-.006c.221.031.432.091.633.174-.098-.039-.196-.083-.294-.123.199.086.383.196.554.328l-.248-.193c.159.125.3.266.426.425l-.193-.248c.132.172.242.355.328.555l-.123-.294c.086.204.144.416.175.633a4.724 4.724 0 0 1-.037-.269l-.006-.057c.015.114.022.227.025.34.006.662.557 1.225 1.224 1.225h1.454c.321 0 .649.007.958-.101.374-.125.738-.333.992-.64.129-.156.251-.309.33-.492.135-.303.196-.526.23-.857.033-.343.009-.701.009-1.044v-3.101c0-.64-.564-1.255-1.224-1.224-.658.031-1.221.539-1.221 1.224zM8.993 22.169c0 .113-.009.226-.024.34.015-.108.031-.217.042-.325-.03.22-.091.431-.174.633l.123-.294a2.576 2.576 0 0 1-.328.554l.193-.248c-.125.159-.266.3-.425.426l.248-.193a2.596 2.596 0 0 1-.554.327c.098-.039.196-.082.294-.122a2.523 2.523 0 0 1-.633.174c.107-.015.217-.031.325-.043a2.563 2.563 0 0 1-.693-.001l.013.002c.106.016.217.031.324.043a2.642 2.642 0 0 1-.651-.181l.017.006c.098.039.196.083.294.122a2.564 2.564 0 0 1-.56-.332l.006.004.248.193a2.58 2.58 0 0 1-.422-.42l-.004-.005.193.248a2.56 2.56 0 0 1-.321-.539l-.007-.017.123.294a2.444 2.444 0 0 1-.173-.62l-.002-.014c.016.108.031.217.043.325a2.563 2.563 0 0 1 .001-.693l-.002.013a4.53 4.53 0 0 0-.037.268l-.006.057c.035-.237.096-.45.181-.651l-.006.017-.123.294c.086-.199.196-.383.328-.555l-.193.248c.126-.159.266-.3.426-.424l-.248.192c.172-.131.355-.242.554-.327-.098.039-.196.082-.294.122.184-.079.397-.14.62-.173l.014-.002a8.746 8.746 0 0 1-.325.043 2.563 2.563 0 0 1 .693.001l-.013-.002a5.423 5.423 0 0 0-.266-.037l-.058-.006c.22.031.431.091.633.174-.098-.039-.196-.082-.294-.122.199.086.383.196.554.327l-.248-.193c.159.125.3.266.425.426l-.193-.248c.132.171.242.355.328.554l-.123-.294c.086.205.144.417.174.633a7.184 7.184 0 0 1-.037-.267l-.006-.057c.018.113.024.227.024.34.003.315.135.643.359.867.211.211.56.374.866.358.658-.031 1.231-.539 1.225-1.224-.007-.725-.214-1.494-.646-2.085a4.343 4.343 0 0 0-.901-.919l-.011-.008c-.291-.224-.618-.371-.961-.496a3.544 3.544 0 0 0-1.208-.198c-.354 0-.696.051-1.019.146l.026-.006c-.677.193-1.335.594-1.785 1.139a4.154 4.154 0 0 0-.667 1.117l-.01.028c-.137.343-.193.701-.226 1.068-.061.72.144 1.497.514 2.112.361.601.912 1.133 1.552 1.424.447.202.844.312 1.332.364.364.039.728 0 1.087-.071a3.564 3.564 0 0 0 1.992-1.175c.581-.695.916-1.527.925-2.442.007-.64-.566-1.255-1.225-1.225-.662.034-1.212.542-1.219 1.228z"/><path d="M25.921 22.168c0 .114-.009.227-.024.34.015-.107.031-.217.042-.324-.031.22-.091.431-.174.633l.123-.294a2.576 2.576 0 0 1-.328.554l.193-.248c-.125.159-.266.3-.425.426l.248-.193a2.6 2.6 0 0 1-.554.328l.294-.123a2.523 2.523 0 0 1-.633.174c.107-.015.217-.031.325-.042a2.563 2.563 0 0 1-.693-.001l.013.002c.107.015.217.03.325.042a2.642 2.642 0 0 1-.651-.181l.017.006.294.123a2.604 2.604 0 0 1-.56-.332l.006.004.248.193a2.58 2.58 0 0 1-.422-.42l-.004-.005.193.248a2.56 2.56 0 0 1-.321-.539l-.007-.017c.039.098.083.197.123.295a2.444 2.444 0 0 1-.173-.62l-.002-.014c.016.107.031.217.043.324a2.563 2.563 0 0 1 .001-.693l-.002.013a8.746 8.746 0 0 0-.043.325c.035-.237.096-.45.181-.651l-.006.017c-.039.098-.082.196-.122.294.086-.199.196-.383.328-.554l-.193.248c.126-.16.266-.299.421-.422l.005-.004-.248.193a2.6 2.6 0 0 1 .554-.328c-.098.039-.196.083-.294.122.205-.085.416-.144.633-.174a8.746 8.746 0 0 1-.325.043 2.563 2.563 0 0 1 .693.001l-.013-.002a5.423 5.423 0 0 0-.266-.037l-.058-.006c.22.031.431.091.633.174-.098-.039-.196-.082-.294-.122.199.086.383.196.554.328l-.248-.193c.159.125.3.266.425.426l-.193-.248a2.6 2.6 0 0 1 .328.554l-.123-.294c.086.205.144.416.174.633a4.724 4.724 0 0 1-.037-.269l-.005-.056c.015.113.024.227.024.34.003.315.135.643.359.867.211.211.56.374.866.358.658-.031 1.231-.539 1.224-1.224-.007-.725-.214-1.494-.646-2.085a4.343 4.343 0 0 0-.901-.919l-.011-.008c-.291-.223-.618-.37-.961-.496a3.544 3.544 0 0 0-1.208-.198c-.354 0-.696.051-1.019.146l.026-.006c-.677.193-1.335.594-1.785 1.139a4.154 4.154 0 0 0-.667 1.117l-.01.028c-.137.343-.193.701-.227 1.068-.061.72.144 1.497.515 2.112.361.601.912 1.133 1.552 1.424.388.185.839.314 1.314.363l.017.001c.364.039.728 0 1.087-.071a3.558 3.558 0 0 0 1.992-1.175c.581-.695.916-1.527.925-2.442.007-.64-.566-1.255-1.224-1.225-.662.034-1.212.542-1.219 1.228z"/></symbol><symbol id="icon-partners" viewBox="0 0 32 32"><path fill="#9f9f9f" d="M.91 15.805a.34.34 0 0 1 .207.129.358.358 0 0 1 .078.228.369.369 0 0 1-.131.296.546.546 0 0 1-.361.108h-.69v-1.482H.68c.151 0 .268.034.353.103a.342.342 0 0 1 .129.281.33.33 0 0 1-.07.217.345.345 0 0 1-.182.12zm-.537-.123h.236a.21.21 0 0 0 .135-.038c.032-.027.049-.065.049-.116s-.016-.089-.049-.116c-.031-.027-.076-.04-.135-.04H.373v.31zm.266.591c.06 0 .107-.013.139-.04.034-.028.051-.068.051-.12s-.018-.093-.053-.122a.205.205 0 0 0-.141-.044H.373v.327h.266zm.693-.299c0-.121.023-.227.068-.319a.491.491 0 0 1 .452-.285.44.44 0 0 1 .217.051.377.377 0 0 1 .146.133v-.167h.361v1.178h-.361v-.167a.383.383 0 0 1-.148.133.443.443 0 0 1-.217.051.487.487 0 0 1-.45-.287.728.728 0 0 1-.068-.321zm.883.002a.29.29 0 0 0-.076-.213c-.049-.052-.11-.078-.182-.078s-.133.026-.184.078c-.049.051-.074.121-.074.211s.025.162.074.215c.051.052.112.078.184.078s.132-.026.182-.078a.29.29 0 0 0 .076-.213zm.802-.712a.224.224 0 0 1-.156-.055.187.187 0 0 1-.059-.139c0-.056.02-.103.059-.139a.22.22 0 0 1 .156-.057.21.21 0 0 1 .152.057.178.178 0 0 1 .061.139c0 .055-.02.101-.061.139a.212.212 0 0 1-.152.055zm.181 1.453c0 .145-.037.249-.11.312a.444.444 0 0 1-.306.097h-.141v-.306h.087c.039 0 .068-.008.084-.023s.025-.041.025-.076v-1.334h.361v1.33zm1.423-1.33v1.178H4.26v-.16a.417.417 0 0 1-.15.127.456.456 0 0 1-.207.046.412.412 0 0 1-.399-.234.591.591 0 0 1-.057-.268v-.688h.359v.64c0 .079.02.14.061.184s.096.065.165.065c.07 0 .126-.022.167-.065s.061-.105.061-.184v-.64h.361zm1.423 0v1.178h-.361v-.16a.417.417 0 0 1-.15.127.456.456 0 0 1-.207.046.412.412 0 0 1-.399-.234.591.591 0 0 1-.057-.268v-.688h.359v.64c0 .079.02.14.061.184s.096.065.165.065c.07 0 .126-.022.167-.065s.061-.105.061-.184v-.64h.361zm3.944 1.066c.021.032.043.058.065.078s.051.037.087.051v.042a7.592 7.592 0 0 0-.314-.006h-.017.001c-.093 0-.182.002-.268.006v-.042a.358.358 0 0 0 .084-.013c.018-.006.027-.015.027-.03 0-.011-.008-.029-.023-.053l-.306-.496a.373.373 0 0 0-.072-.091.13.13 0 0 0-.076-.027v.528c0 .053.004.092.011.116.008.024.023.04.044.049s.056.014.103.017v.042a6.46 6.46 0 0 0-.319-.006 6.65 6.65 0 0 0-.334.006v-.042a.339.339 0 0 0 .101-.017.068.068 0 0 0 .044-.049.395.395 0 0 0 .013-.116v-1.047a.364.364 0 0 0-.013-.116.072.072 0 0 0-.044-.049.375.375 0 0 0-.101-.017v-.042c.072.004.183.006.334.006.137 0 .243-.002.319-.006v.042c-.048.003-.082.008-.103.017s-.036.025-.044.049a.453.453 0 0 0-.011.116v.475a.301.301 0 0 0 .155-.051l-.001.001a.853.853 0 0 0 .158-.148l.125-.15c.065-.075.097-.14.097-.196a.092.092 0 0 0-.042-.08.211.211 0 0 0-.114-.034v-.04c.103.004.207.006.312.006.082 0 .148-.002.198-.006v.04a.572.572 0 0 0-.306.203l-.264.315.492.766zm.46.185c-.09 0-.158-.023-.203-.07a.256.256 0 0 1-.065-.184.24.24 0 0 1 .049-.156.348.348 0 0 1 .12-.097c.048-.023.108-.046.182-.072.077-.027.134-.051.169-.072.037-.023.055-.053.055-.091v-.165a.202.202 0 0 0-.042-.137c-.027-.034-.069-.051-.127-.051-.068 0-.119.017-.154.051.039.014.07.035.091.063a.15.15 0 0 1 .034.099c0 .048-.016.086-.049.114s-.072.042-.118.042c-.049 0-.087-.015-.114-.046s-.04-.07-.04-.116c0-.039.009-.072.027-.099a.29.29 0 0 1 .089-.078.48.48 0 0 1 .139-.053.813.813 0 0 1 .363.002c.05.014.093.038.127.072a.226.226 0 0 1 .061.114.803.803 0 0 1 .017.184v.574c0 .034.003.058.008.072.007.014.02.021.038.021.021 0 .046-.012.076-.036l.021.036a.354.354 0 0 1-.232.078c-.077 0-.132-.015-.163-.046s-.047-.072-.049-.125a.342.342 0 0 1-.31.171zm.162-.135c.055 0 .103-.029.144-.087v-.433a.329.329 0 0 1-.108.093c-.055.035-.096.07-.125.106s-.042.086-.042.152c0 .058.012.101.036.129.024.027.056.04.095.04zm1.08-.971h.249v.042h-.249v.853c0 .042.007.072.021.091.015.017.039.025.072.025.06 0 .108-.042.144-.127l.036.019c-.053.145-.15.217-.289.217-.093 0-.163-.024-.211-.072a.23.23 0 0 1-.061-.11.885.885 0 0 1-.015-.184v-.714h-.177v-.042h.177v-.279a.646.646 0 0 0 .304-.068v.346zm.743.167c.063-.131.178-.196.344-.196.11 0 .187.027.232.082a.234.234 0 0 1 .051.106.692.692 0 0 1 .017.169v.568c0 .058.01.098.03.12.02.021.055.032.106.032v.044a8.062 8.062 0 0 0-.279-.008c-.048 0-.139.003-.274.008v-.044c.042 0 .072-.011.089-.032.017-.023.025-.063.025-.12v-.657a.235.235 0 0 0-.03-.131c-.018-.03-.052-.044-.101-.044a.191.191 0 0 0-.15.07.256.256 0 0 0-.059.173v.589c0 .058.008.098.025.12.017.021.046.032.089.032v.044a6.846 6.846 0 0 0-.262-.008c-.048 0-.145.003-.291.008v-.044c.049 0 .084-.011.103-.032.021-.023.032-.063.032-.12v-1.201c0-.065-.011-.112-.032-.141-.02-.03-.054-.044-.103-.044v-.044c.045.004.089.006.131.006.122 0 .225-.01.308-.03v.726zm1.4-.197c.162 0 .289.046.38.139.091.091.137.237.137.437s-.046.346-.137.437a.514.514 0 0 1-.38.137.52.52 0 0 1-.38-.137c-.091-.091-.137-.237-.137-.437s.046-.346.137-.437a.514.514 0 0 1 .38-.139zm0 .043c-.06 0-.109.044-.146.133-.035.087-.053.221-.053.401s.018.314.053.401c.037.087.085.131.146.131.062 0 .111-.043.146-.129.035-.087.053-.222.053-.403s-.018-.316-.055-.403c-.035-.087-.083-.131-.144-.131zm1.198-.043c.052 0 .101.006.148.017s.085.027.116.046a.226.226 0 0 1 .084.087.209.209 0 0 1 .032.112c0 .049-.015.09-.046.122-.031.031-.071.046-.12.046s-.089-.014-.118-.042-.044-.066-.044-.114c0-.042.013-.079.04-.11a.2.2 0 0 1 .098-.063h.001a.113.113 0 0 0-.053-.036.185.185 0 0 0-.072-.015h-.002c-.084 0-.151.046-.198.139a.805.805 0 0 0-.07.361c0 .151.027.259.08.325s.12.099.201.099a.31.31 0 0 0 .144-.038.352.352 0 0 0 .133-.133l.036.013a.53.53 0 0 1-.148.236.384.384 0 0 1-.272.097c-.145 0-.263-.048-.355-.144s-.137-.238-.137-.427c0-.124.023-.229.068-.317s.107-.153.186-.196a.536.536 0 0 1 .27-.068zm3.226.466v.588h-.198v-1.501h.554c.164 0 .293.042.386.126s.14.195.14.333c0 .146-.046.258-.137.337s-.221.118-.391.118h-.354zm0-.161h.356c.106 0 .187-.025.243-.074s.085-.122.085-.216c0-.089-.028-.161-.085-.214s-.134-.081-.232-.084h-.367v.589zm1.553.77c-.151 0-.274-.049-.369-.148s-.142-.233-.142-.399v-.035c0-.111.021-.209.063-.296s.102-.155.177-.204a.441.441 0 0 1 .247-.074c.145 0 .258.048.338.143s.121.232.121.41v.079h-.756c.003.11.035.199.096.267s.14.101.235.101c.067 0 .124-.014.171-.041s.088-.064.123-.109l.116.091a.467.467 0 0 1-.421.215zm-.024-1c-.077 0-.142.028-.194.085s-.085.134-.097.235h.559v-.014c-.006-.097-.032-.172-.078-.225s-.11-.08-.19-.08zm1.219.035a.517.517 0 0 0-.091-.007h-.003c-.125 0-.21.053-.255.16v.792h-.191v-1.115h.186l.003.129a.296.296 0 0 1 .266-.149.21.21 0 0 1 .085.014v.177zm.357-.171.006.14a.408.408 0 0 1 .334-.161c.236 0 .355.133.357.399v.737h-.191v-.738c-.001-.08-.019-.14-.056-.178s-.092-.058-.168-.058c-.062 0-.116.017-.163.05s-.083.076-.109.13v.795h-.191v-1.115h.18zm1.192 1.115h-.191v-1.115h.191v1.115zm-.206-1.411c0-.031.009-.057.028-.078s.047-.032.085-.032.065.011.085.032c.019.021.029.047.029.078s-.01.057-.029.077c-.019.021-.047.031-.085.031s-.065-.01-.085-.031a.11.11 0 0 1-.028-.077zm.823.895-.12.125v.392h-.191v-1.584h.191v.958l.102-.123.347-.367h.232l-.434.466.485.649h-.224l-.389-.517zm4.103-.569a.533.533 0 0 0-.061-.194.324.324 0 0 0-.125-.129.347.347 0 0 0-.184-.046.26.26 0 0 0-.173.059.186.186 0 0 0-.068.146.2.2 0 0 0 .04.125.403.403 0 0 0 .12.097c.052.028.114.058.186.089.07.029.123.055.176.082l-.013-.006a.77.77 0 0 1 .152.097.48.48 0 0 1 .111.131l.001.002c.03.049.044.108.044.177a.375.375 0 0 1-.065.217c-.042.063-.103.113-.182.148s-.172.053-.279.053a.717.717 0 0 1-.372-.107l.002.001.006.091h-.144l-.004-.479h.12c.015.12.06.21.133.272a.398.398 0 0 0 .264.091.338.338 0 0 0 .139-.027.247.247 0 0 0 .095-.078.194.194 0 0 0 .036-.112v-.002c0-.055-.017-.1-.051-.135s-.077-.065-.129-.091a2.054 2.054 0 0 0-.14-.065l-.023-.009a2.074 2.074 0 0 1-.192-.091l.013.006a.88.88 0 0 1-.15-.103.475.475 0 0 1-.1-.132l-.001-.003a.417.417 0 0 1 .063-.437c.037-.039.085-.072.146-.097s.136-.038.226-.038c.056 0 .118.008.184.025a.476.476 0 0 1 .177.078l-.008-.089h.146v.483h-.118zm.336 1.552v-.112c.041 0 .07-.009.087-.027.018-.017.03-.042.034-.074s.006-.069.006-.11l.002-.935v-.08a.907.907 0 0 1 .008-.087l-.08.004-.07.004v-.137c.065 0 .117-.003.156-.008a.376.376 0 0 0 .093-.025.225.225 0 0 0 .049-.027h.091c.003.014.005.031.006.051l.004.055a.457.457 0 0 1 .148-.089.417.417 0 0 1 .376.035.425.425 0 0 1 .156.184.64.64 0 0 1 .057.281.656.656 0 0 1-.07.308c-.045.089-.107.158-.186.209a.49.49 0 0 1-.484.026l.003.001v.251l-.002.08a.703.703 0 0 1-.006.093.634.634 0 0 1 .069-.006h.066v.135h-.513zm.572-.638a.22.22 0 0 0 .156-.059c.041-.039.07-.091.089-.156a.748.748 0 0 0 0-.407c-.017-.062-.044-.112-.082-.15s-.089-.057-.152-.057a.253.253 0 0 0-.113.03l.001-.001a.253.253 0 0 0-.084.071v.677a.328.328 0 0 0 .183.053h.002zm1.321.099a.526.526 0 0 1-.008-.05v-.003l-.002-.053a.478.478 0 0 1-.154.106.424.424 0 0 1-.166.034h-.001c-.096 0-.17-.026-.222-.078a.263.263 0 0 1-.076-.192c0-.068.018-.125.055-.171a.395.395 0 0 1 .144-.116.986.986 0 0 1 .409-.097v-.116a.394.394 0 0 0-.015-.112.142.142 0 0 0-.049-.082c-.024-.021-.059-.032-.106-.032a.276.276 0 0 0-.095.021.153.153 0 0 0-.074.055.093.093 0 0 1 .021.042.182.182 0 0 1 .004.038.14.14 0 0 1-.03.08c-.02.027-.051.039-.095.038a.115.115 0 0 1-.089-.04.142.142 0 0 1-.03-.091c0-.053.019-.1.057-.139a.39.39 0 0 1 .158-.095.646.646 0 0 1 .222-.036c.121 0 .214.032.279.095s.096.165.095.304v.135l-.002.12v.133c0 .062-.004.122-.009.181l.001-.008a.602.602 0 0 1 .076-.004l.065-.004v.137h-.365zm-.023-.496a.655.655 0 0 0-.129.022l.004-.001c-.041.01-.077.024-.11.042s-.058.042-.078.07a.148.148 0 0 0-.025.093c.001.044.015.076.042.097.027.02.058.03.093.03a.234.234 0 0 0 .11-.025.354.354 0 0 0 .093-.068v-.26zm.919.53a.456.456 0 0 1-.116-.015.25.25 0 0 1-.101-.055.286.286 0 0 1-.072-.118.676.676 0 0 1-.027-.211l.004-.545-.15.002v-.148a.222.222 0 0 0 .122-.042.403.403 0 0 0 .103-.11.394.394 0 0 0 .059-.141v-.003h.129l-.002.296h.298v.135l-.298.006-.002.543c0 .042.004.082.011.118a.185.185 0 0 0 .042.084.114.114 0 0 0 .084.032.205.205 0 0 0 .091-.025.308.308 0 0 0 .106-.101l.087.078a.53.53 0 0 1-.11.125.403.403 0 0 1-.199.09l-.059.004zm.881 0a.39.39 0 0 1-.201-.046.27.27 0 0 1-.112-.148.84.84 0 0 1-.036-.27v-.287l.002-.08.004-.089-.076.004a1.29 1.29 0 0 0-.07.002v-.135h.036a.64.64 0 0 0 .179-.019.263.263 0 0 0 .089-.042h.097v.646c0 .101.013.177.04.226.028.049.073.074.135.074a.34.34 0 0 0 .226-.122v-.456l.002-.087c.001-.031.004-.061.006-.091l-.078.004a1.29 1.29 0 0 0-.07.002v-.135h.055a.513.513 0 0 0 .16-.021.263.263 0 0 0 .087-.04h.097v.758l-.002.087c-.001.04-.004.075-.007.111l.001-.008a.57.57 0 0 1 .074-.004h.002l.073-.005-.008.001v.137h-.367l-.008-.059-.004-.057a.784.784 0 0 1-.144.103l-.004.002a.357.357 0 0 1-.179.044z"/></symbol><symbol id="icon-accesories" viewBox="0 0 32 32"><path d="M16 2.934C7.102 2.934.134 7.04.134 12.267v7.467c0 4.262 4.84 7.944 11.795 9.014.392.207.828.317 1.271.32h5.6a2.754 2.754 0 0 0 1.286-.327l-.015.007c6.955-1.07 11.795-4.752 11.795-9.014v-7.467c0-5.226-6.968-9.333-15.866-9.333zm-14 16.8v-3.01a16.055 16.055 0 0 0 8.717 4.362l.091.012a2.74 2.74 0 0 0-.408 1.435v3.733c0 .098.018.187.028.284C5.446 25.363 2 22.66 2 19.733zm17.733 6.532a.974.974 0 0 1-.931.934h-1.869v-1.866h.934a.934.934 0 1 0 0-1.868h-.933V21.6H18.8c.515 0 .933.418.933.934v3.733zm-7.467 0v-3.733c0-.516.418-.934.934-.934h1.866v1.866a.934.934 0 1 0 0 1.868v1.866H13.2a.97.97 0 0 1-.934-.932v-.002zm9.118-8.184c.186-2.261-2.184-3.634-4.45-3.896V12.32c4.389.382 7.352 3.352 4.45 5.762zm-9.117-.216C12.266 16.985 13.862 16 16 16c2.03 0 3.546.986 3.546 1.866S18.03 19.733 16 19.733c-1.52 0-3.734-.708-3.734-1.867zm2.8-3.672c-2.678.29-4.667 1.791-4.667 3.67-2.614-2.52.648-5.194 4.666-5.541v1.872zm8.975 3.36A3.971 3.971 0 0 0 24.4 16c0-3.142-3.69-5.6-8.4-5.6S7.599 12.858 7.599 16c.012.539.134 1.07.358 1.56a4.395 4.395 0 0 1-2.224-3.409l-.001-.018c0-3.035 4.702-5.6 10.267-5.6s10.266 2.565 10.266 5.6a4.396 4.396 0 0 1-2.203 3.416l-.022.011v-.006zm5.959 2.18c0 2.926-3.446 5.63-8.428 6.817.01-.095.028-.186.028-.284v-3.733a2.758 2.758 0 0 0-.416-1.448l.007.012c3.32-.504 6.4-2.032 8.808-4.374v3.01zm-2.414-3.34c.357-.7.544-1.474.547-2.26 0-4.187-5.33-7.467-12.134-7.467S3.866 9.947 3.866 14.134c.003.786.19 1.56.547 2.26A5.428 5.428 0 0 1 2 12.285l-.001-.018c0-4.046 6.412-7.466 14-7.466s14 3.42 14 7.466a5.43 5.43 0 0 1-2.394 4.116l-.02.012z"/></symbol><symbol id="icon-dress" viewBox="0 0 32 32"><path d="M4.8 24.947a12.185 12.185 0 0 0 1.708 5.889 1.87 1.87 0 0 0 1.669 1.03h8.027a1.87 1.87 0 0 0 1.809-1.401l.003-.013.784-3.136.784 3.136a1.87 1.87 0 0 0 1.811 1.414h2.428c.727 0 1.357-.416 1.665-1.023l.005-.011a12.003 12.003 0 0 0 1.706-5.869v-.017c0-5.492-3.734-7.21-3.734-9.315 0-2.613 3.734-3.059 3.734-6.731 0-3.974-3.734-3.57-3.734-6.04v-.861A1.866 1.866 0 0 0 21.599.133h-1.867a1.866 1.866 0 0 0-1.866 1.866V3.12c0 .763-.387 1.436-.976 1.832l-.008.005a4.12 4.12 0 0 0-.882.795 4.126 4.126 0 0 0-.869-.786l-.015-.009a2.205 2.205 0 0 1-.984-1.836V1.999c0-1.03-.835-1.866-1.866-1.866h-1.867a1.866 1.866 0 0 0-1.866 1.866v.867c0 .856-.49 1.598-1.205 1.961l-.013.006c-1.503.757-2.516 2.288-2.516 4.055v.018-.001c0 3.629 3.734 4.155 3.734 6.763 0 1.994-3.734 3.829-3.734 9.278zM6.666 8.894c0-2.938 3.734-2.158 3.734-6.04V2h1.866V3.126a4.06 4.06 0 0 0 1.801 3.376l.015.009c.596.401.983 1.072.984 1.834a.934.934 0 1 0 1.868 0v-.002c0-.763.387-1.436.976-1.832l.008-.005a4.067 4.067 0 0 0 1.816-3.386V1.998H21.6v.861c0 3.92 3.734 3.076 3.734 6.04 0 2.636-3.734 3.058-3.734 6.763 0 3.276 3.734 4.146 3.734 9.283a10.44 10.44 0 0 1-1.536 5.098l.026-.046h-2.426l-1.691-6.759a.97.97 0 0 0-1.808-.007l-.002.007-1.693 6.759H8.178a10.363 10.363 0 0 1-1.51-5.034l-.001-.019c0-5.085 3.734-5.99 3.734-9.315 0-3.703-3.734-4.066-3.734-6.726V8.89z"/></symbol><symbol id="icon-shoes" viewBox="0 0 32 32"><path fill="#fff" style="fill:var(--color3, #fff)" d="M30 6.324h-9.688c-.7.001-1.309.389-1.625.962l-.005.01a3.741 3.741 0 0 0-3.64-2.9 3.734 3.734 0 0 0-2.835 6.164l-.004-.005c-.224.047-1.521.346-2.027.464a.934.934 0 0 0 .458 1.809l-.006.001a22.767 22.767 0 0 1 4.984-.846 7.674 7.674 0 0 1-4.962 1.808h-.019.001c-5.029.002-9.255 3.442-10.453 8.098l-.016.075c-.05.203-.016 1.021-.028 2.092a2.8 2.8 0 0 0 2.8 2.8h16.028a2.817 2.817 0 0 0 1.979-.819l.661-.661.661.661a2.81 2.81 0 0 0 1.978.819h4.828a2.8 2.8 0 0 0 2.8-2.8V8.19a1.866 1.866 0 0 0-1.866-1.866zm-14.932 3.732a1.867 1.867 0 1 1 1.866-1.866v1.866h-1.867zm-4.437 5.6a9.764 9.764 0 0 0 2.826-.421l-.069.018c.319.374.659.73 1.019 1.064a.933.933 0 0 0 1.595-.66.933.933 0 0 0-.274-.661l-.515-.515c.234-.126.467-.256.689-.403l1.307 1.307a.933.933 0 0 0 1.595-.66.933.933 0 0 0-.274-.661l-1.17-1.168c.186-.187.373-.374.534-.56l1.182 1.182a.933.933 0 0 0 1.595-.66.933.933 0 0 0-.274-.661l-1.418-1.416c.61-1.078.704-1.36 1.334-2.59h9.686v13.066H2.347c1.35-3.31 4.544-5.6 8.272-5.6h.011-.001zm18.437 9.334H24.24c-.59 0-.8-.483-1.32-.934-.343-.327-.808-.528-1.32-.528s-.977.201-1.32.529l.001-.001c-.52.452-.732.934-1.32.934H2.935a.934.934 0 0 1-.933-.934v-.933h28v.933a.934.934 0 0 1-.934.934z"/></symbol><symbol id="icon-pants" viewBox="0 0 32 32"><path d="M22.534.134H9.351c-.99 0-1.8.771-1.862 1.745v.005l-1.751 28A1.866 1.866 0 0 0 7.6 31.868h3.822c.922 0 1.688-.67 1.839-1.549l.002-.011 2.682-16.096 2.682 16.096c.153.89.918 1.558 1.84 1.558h3.822a1.866 1.866 0 0 0 1.862-1.987v.005l-1.751-28a1.867 1.867 0 0 0-1.863-1.75h-.004zm0 1.866.205 3.287a3.597 3.597 0 0 1-2.128-3.279v-.009h1.923zM11.278 2v.007a3.59 3.59 0 0 1-2.106 3.271l-.023.009L9.354 2h1.923zm9.189 28L16.864 8.38a.934.934 0 0 0-1.839-.006l-.001.006L11.421 30H7.604L9.015 7.442c2.334-.788 4.008-2.904 4.128-5.428L13.144 2h1.866v2.8a.934.934 0 1 0 1.868 0V2h1.866a6.033 6.033 0 0 0 4.086 5.429l.042.012 1.411 22.558h-3.817z"/></symbol><symbol id="icon-shirt" viewBox="0 0 32 32"><path d="M9.546 30h13.067a1.866 1.866 0 0 0 1.866-1.866v-15.48l1.48 1.48a1.907 1.907 0 0 0 2.641 0l-.001.001 2.414-2.414c.338-.338.547-.805.547-1.32s-.209-.982-.547-1.32L24.751 2.82a2.773 2.773 0 0 0-1.971-.819H9.377c-.77 0-1.467.313-1.971.819L1.145 9.081c-.338.338-.547.804-.547 1.32s.209.982.547 1.32l2.414 2.414a1.907 1.907 0 0 0 2.641 0l-.001.001 1.48-1.48v15.48c0 1.031.836 1.866 1.866 1.866zm9.162-26.134c-.39 1.096-1.419 1.867-2.628 1.867s-2.238-.771-2.622-1.847l-.006-.019h5.256zM4.88 12.814 2.466 10.4l6.261-6.261a.933.933 0 0 1 .658-.272h2.123c.449 2.146 2.325 3.735 4.573 3.735s4.124-1.589 4.568-3.705l.005-.03h2.122a.93.93 0 0 1 .658.272l6.258 6.261-2.414 2.414-3.072-3.074a.934.934 0 0 0-1.596.659v17.736H9.544V10.399A.933.933 0 0 0 7.95 9.74l-3.074 3.074z"/></symbol><symbol id="icon-jacket" viewBox="0 0 32 32"><path d="M27.879 7.132a2.747 2.747 0 0 0-1.655-1.571l-.019-.006-4.303-1.435-1.15-2.299A2.722 2.722 0 0 0 18.317.312h-5.05a2.72 2.72 0 0 0-2.428 1.494l-.007.016-1.15 2.299-4.304 1.435a2.75 2.75 0 0 0-1.667 1.558l-.007.018-3.067 7.669a4.43 4.43 0 0 0-.325 1.682v.01-.001 11.136a1.82 1.82 0 0 0 1.821 1.821h1.822a1.82 1.82 0 0 0 1.821-1.821v-2.597l.911-3.038v2.043a6.056 6.056 0 0 0 .925 2.921l-.015-.025v2.517a1.82 1.82 0 0 0 1.821 1.821H22.168a1.82 1.82 0 0 0 1.821-1.821v-2.516a6 6 0 0 0 .909-2.88l.001-.015v-2.045l.911 3.038v2.597c0 1.005.815 1.82 1.821 1.821h1.822a1.82 1.82 0 0 0 1.821-1.821V16.483c0-.606-.12-1.184-.337-1.711l.011.03-3.067-7.671zm-2.091.246a44.98 44.98 0 0 0-2.539 4.272l-.124.261c-.097.364-.016-.059-.048 10.255a2.732 2.732 0 0 1-2.732-2.732.911.911 0 0 0-1.822 0 4.554 4.554 0 0 0 4.553 4.553v.052a3.779 3.779 0 0 1-.572 1.786l.009-.016h-5.811V8.996l4.688-3.125c5.201 1.769 4.035 1.297 4.398 1.508zm-13.82-3.74 1.127 1.972-1.584-1.057.457-.915zm7.663 0 .457.91-1.584 1.057 1.127-1.967zm-1.249-1.486-2.59 4.52-2.582-4.52c.369-.019 4.793-.019 5.165 0h.008zm-8.189 3.717 4.688 3.125v16.813H9.07a3.68 3.68 0 0 1-.562-1.76v-.062a4.553 4.553 0 0 0 4.552-4.553v-.027a.911.911 0 0 0-1.822 0v.028-.001a2.732 2.732 0 0 1-2.732 2.732c-.033-10.311.049-9.9-.047-10.255a46.319 46.319 0 0 0-2.771-4.701l.107.168c.279-.164 2.54-.874 4.398-1.508zm-8.06 21.76v-1.821h1.822v1.821H2.133zm4.439-11.586-2.384 7.944H2.134V16.493c0-.365.072-.714.202-1.032l-.007.018 2.482-6.203 1.876 3.125v2.857c0 .266-.039.531-.115.785zM9.418 29.45v-1.821h12.748v1.821H9.418zm15.48-14.191v-2.857l1.876-3.125 2.482 6.205c.129.322.195.665.195 1.012v7.493h-2.056l-2.384-7.945a2.642 2.642 0 0 1-.115-.78v-.003zm2.731 12.37v-1.821h1.822v1.821h-1.822z"/></symbol><symbol id="icon-ArrowR" viewBox="0 0 32 32"><path d="M7 16.133c0-.273.105-.537.293-.73A.985.985 0 0 1 8 15.1h13.59l-1.3-1.331a1.048 1.048 0 0 1-.294-.73v-.004c0-.275.106-.538.294-.733a.981.981 0 0 1 .71-.303c.267 0 .522.109.71.303l3 3.097a1.037 1.037 0 0 1 .288.724c0 .355-.174.669-.442.862l-.003.002a.981.981 0 0 1-.553.176H8a.986.986 0 0 1-.707-.302A1.043 1.043 0 0 1 7 16.133v-.002z"/><path d="M20 19.23v-.007c0-.14.027-.274.077-.396l-.003.007c.05-.127.123-.24.216-.337l3-3.097a.972.972 0 0 1 1.1-.222l-.006-.002c.122.052.233.128.326.225a1.058 1.058 0 0 1 0 1.465l-3 3.097a.996.996 0 0 1-.319.224l-.006.003a.97.97 0 0 1-1.094-.226 1.026 1.026 0 0 1-.214-.33l-.002-.007a1.037 1.037 0 0 1-.074-.389v-.007z"/></symbol><symbol id="icon-envelope" viewBox="0 0 32 32"><path d="M27.2 3.2H4.8A4.8 4.8 0 0 0 0 8v16a4.8 4.8 0 0 0 4.8 4.8h22.4A4.8 4.8 0 0 0 32 24V8a4.8 4.8 0 0 0-4.8-4.8zm-.917 3.2-9.323 7.68a1.586 1.586 0 0 1-1.869.042l.005.003L5.717 6.4h20.566zm.917 19.2H4.8A1.6 1.6 0 0 1 3.2 24V8.48l9.92 8.16a4.724 4.724 0 0 0 2.85.949h.011-.001a4.903 4.903 0 0 0 2.969-1.002l-.012.009 9.862-8.115v15.52a1.6 1.6 0 0 1-1.6 1.6z"/></symbol><symbol id="icon-basket" viewBox="0 0 32 32"><path d="M11.789 26.947a2.526 2.526 0 0 0 0 5.052 2.526 2.526 0 0 0 0-5.052zm17.685-5.052H9.263a1.684 1.684 0 0 1 0-3.368h14.301a5.08 5.08 0 0 0 4.85-3.629l.009-.036 2.669-9.347a1.684 1.684 0 0 0-1.619-2.145H8.825C8.109 1.397 6.255.012 4.077.002H2.526a1.684 1.684 0 0 0 0 3.368h1.551c.765.003 1.41.512 1.617 1.209l.003.012.261.918v.008l2.765 9.671c-2.55.281-4.516 2.423-4.516 5.024a5.053 5.053 0 0 0 5.053 5.053h20.212a1.684 1.684 0 0 0 0-3.368zM27.24 6.737l-2.055 7.198a1.696 1.696 0 0 1-1.623 1.223H12.217l-.428-1.502-1.977-6.919H27.24zm-1.977 20.21a2.526 2.526 0 0 0 0 5.052 2.526 2.526 0 0 0 0-5.052z"/></symbol><symbol id="icon-search" viewBox="0 0 32 32"><path fill="#fff" style="fill:var(--color3, #fff)" d="m29.827 27.436-5.726-5.709a13.255 13.255 0 0 0 2.846-8.236v-.017.001c0-7.441-6.032-13.474-13.474-13.474S-.001 6.033-.001 13.475c0 7.441 6.032 13.474 13.474 13.474h.017a13.28 13.28 0 0 0 8.264-2.868l-.028.021 5.709 5.726a1.689 1.689 0 0 0 2.756-.536l.004-.011a1.681 1.681 0 0 0-.368-1.844zM3.368 13.474c0-5.581 4.524-10.105 10.105-10.105s10.105 4.524 10.105 10.105-4.524 10.105-10.105 10.105S3.368 19.055 3.368 13.474z"/></symbol><symbol id="icon-logo" viewBox="0 0 32 32"><path d="M19.692 16c0 5.438-4.408 9.846-9.846 9.846S0 21.438 0 16s4.408-9.846 9.846-9.846 9.846 4.408 9.846 9.846z"/><path stroke-width="3.282" d="M30.359 16a8.205 8.205 0 1 1-16.41 0 8.205 8.205 0 0 1 16.41 0z"/></symbol></defs></svg>